<svg width="35" height="26" viewBox="0 0 35 26" fill="none" xmlns="http://www.w3.org/2000/svg">
<g clip-path="url(#clip0_1_1986)">
<path d="M0 0H34.6667V26H0V0Z" fill="#DE2910"/>
<path d="M4.16008 9.62001L6.50005 2.60001L8.84002 9.62001L2.6001 5.33001H10.4L4.16008 9.62001Z" fill="#FFDE00"/>
<path d="M14.3093 2.73454L11.9012 3.2682L13.5075 1.39638L13.3499 3.9156L12.0136 1.68533L14.3093 2.73454Z" fill="#FFDE00"/>
<path d="M16.7397 5.81466L14.3131 5.37258L16.5196 4.27026L15.3973 6.5312L15.0306 3.9572L16.7397 5.81466Z" fill="#FFDE00"/>
<path d="M16.3854 10.1359L14.3501 8.74254L16.8144 8.63603L14.8676 10.2427L15.5825 7.74287L16.3854 10.1359Z" fill="#FFDE00"/>
<path d="M13.3244 12.9589L11.9852 10.8875L14.2993 11.7411L11.8831 12.4711L13.508 10.4414L13.3244 12.9589Z" fill="#FFDE00"/>
</g>
<defs>
<clipPath id="clip0_1_1986">
<rect width="34.6667" height="26" fill="white"/>
</clipPath>
</defs>
</svg>
