<svg width="35" height="26" viewBox="0 0 35 26" fill="none" xmlns="http://www.w3.org/2000/svg">
<g clip-path="url(#clip0_1_1843)">
<path d="M13.8667 0H34.6667V26H13.8667V0Z" fill="#FF0000"/>
<path d="M0 0H13.8667V26H0V0Z" fill="#006600"/>
<path fill-rule="evenodd" clip-rule="evenodd" d="M18.3895 16.5858C16.6399 16.5317 8.63949 11.5375 8.58533 10.7358L9.02408 10.0046C9.82033 11.1583 17.9995 16.0171 18.8066 15.8437L18.3895 16.5858Z" fill="#FFFF00" stroke="black" stroke-width="0.075" stroke-linecap="round" stroke-linejoin="round"/>
<path fill-rule="evenodd" clip-rule="evenodd" d="M8.93207 9.90165C8.77499 10.3242 11.0229 11.7108 13.7204 13.3575C16.4233 14.9987 18.7525 16.0117 18.9204 15.8708L19.0017 15.7192C18.9692 15.7733 18.8933 15.7896 18.7687 15.7517C18.0375 15.5404 16.1362 14.6683 13.78 13.2383C11.4183 11.8083 9.37082 10.4921 9.05124 9.93415C9.02633 9.88185 9.01514 9.82406 9.01874 9.76624H9.00791L8.94291 9.8854L8.93207 9.90165ZM18.4275 16.6075C18.4004 16.6617 18.3408 16.6617 18.2379 16.6508C17.5879 16.5804 15.6054 15.6162 13.26 14.2133C10.53 12.5775 8.27666 11.0933 8.52582 10.7033L8.59082 10.5842L8.60166 10.5896C8.38499 11.2504 13.0487 13.9154 13.325 14.0887C16.0225 15.7571 18.2975 16.7375 18.4979 16.4829L18.4275 16.6075Z" fill="#FFFF00" stroke="black" stroke-width="0.075" stroke-linecap="round" stroke-linejoin="round"/>
<path fill-rule="evenodd" clip-rule="evenodd" d="M13.8775 11.2233C15.6217 11.2071 17.7775 10.985 19.0233 10.4867L18.7525 10.0533C18.0212 10.4596 15.8546 10.7304 13.8612 10.7683C11.5104 10.7467 9.84749 10.5246 9.01333 9.96667L8.76416 10.4325C10.2917 11.0825 11.8625 11.2179 13.8775 11.2233Z" fill="#FFFF00"/>
<path d="M13.8775 11.2233C15.6217 11.2071 17.7775 10.985 19.0233 10.4867L18.7525 10.0533C18.0212 10.4596 15.8546 10.7304 13.8612 10.7683C11.5104 10.7467 9.84749 10.5246 9.01333 9.96667L8.76416 10.4325C10.2917 11.0825 11.8625 11.2179 13.8775 11.2233" stroke="black" stroke-width="0.075" stroke-linecap="round" stroke-linejoin="round"/>
<path fill-rule="evenodd" clip-rule="evenodd" d="M19.0937 10.4975C19.0503 10.5679 18.2378 10.8442 17.0462 11.05C15.9957 11.2092 14.9345 11.287 13.872 11.2829C12.854 11.2867 11.837 11.2216 10.8278 11.0879C9.57658 10.8929 8.93199 10.6221 8.68824 10.5246L8.74783 10.4054C9.43574 10.6762 10.0857 10.8387 10.8441 10.9579C11.8459 11.0932 12.8557 11.1601 13.8666 11.1583C14.9235 11.1594 15.9791 11.0816 17.0245 10.9254C18.2432 10.725 18.9095 10.4704 19.007 10.3567L19.0937 10.5029V10.4975ZM18.8553 10.0587C18.7253 10.1671 18.0645 10.4 16.9053 10.5842C15.9043 10.729 14.8942 10.8014 13.8828 10.8008C12.6912 10.8008 11.7107 10.7142 10.9687 10.6058C9.78783 10.4542 9.15949 10.1725 8.93199 10.0967L9.00241 9.97749C9.18116 10.0696 9.78241 10.3133 10.9795 10.4812C11.9418 10.6101 12.9119 10.6717 13.8828 10.6654C14.887 10.6657 15.8899 10.5933 16.8837 10.4487C18.0482 10.2862 18.6766 9.99374 18.7741 9.91791L18.8553 10.0587ZM8.14116 13.325C9.21366 13.9046 11.6024 14.1917 13.8612 14.2133C15.9195 14.2187 18.5953 13.8992 19.5974 13.3683L19.5703 12.7887C19.2562 13.2762 16.3853 13.7475 13.8395 13.7312C11.2937 13.7096 8.92658 13.3196 8.13574 12.8104V13.325" fill="#FFFF00"/>
<path d="M8.14116 13.325C9.21366 13.9046 11.6024 14.1917 13.8612 14.2133C15.9195 14.2187 18.5953 13.8992 19.5974 13.3683L19.5703 12.7887C19.2562 13.2762 16.3853 13.7475 13.8395 13.7312C11.2937 13.7096 8.92658 13.3196 8.13574 12.8104V13.325M19.0937 10.4975C19.0503 10.5679 18.2378 10.8442 17.0462 11.05C15.9957 11.2092 14.9345 11.287 13.872 11.2829C12.854 11.2867 11.837 11.2216 10.8278 11.0879C9.57658 10.8929 8.93199 10.6221 8.68824 10.5246L8.74783 10.4054C9.43574 10.6762 10.0857 10.8387 10.8441 10.9579C11.8459 11.0932 12.8557 11.1601 13.8666 11.1583C14.9235 11.1594 15.9791 11.0816 17.0245 10.9254C18.2432 10.725 18.9095 10.4704 19.007 10.3567L19.0937 10.5029V10.4975ZM18.8553 10.0587C18.7253 10.1671 18.0645 10.4 16.9053 10.5842C15.9043 10.729 14.8942 10.8014 13.8828 10.8008C12.6912 10.8008 11.7107 10.7142 10.9687 10.6058C9.78783 10.4542 9.15949 10.1725 8.93199 10.0967L9.00241 9.97749C9.18116 10.0696 9.78241 10.3133 10.9795 10.4812C11.9418 10.6101 12.9119 10.6717 13.8828 10.6654C14.887 10.6657 15.8899 10.5933 16.8837 10.4487C18.0482 10.2862 18.6766 9.99374 18.7741 9.91791L18.8553 10.0587V10.0587Z" stroke="black" stroke-width="0.075" stroke-linecap="round" stroke-linejoin="round"/>
<path fill-rule="evenodd" clip-rule="evenodd" d="M19.6516 13.2438V13.3792C19.5 13.5633 18.5575 13.8342 17.3766 14.0292C16.2035 14.1978 15.0193 14.2775 13.8341 14.2675C12.7103 14.2771 11.5875 14.1992 10.4758 14.0346C9.64627 13.9387 8.83568 13.7197 8.0708 13.3846V13.2275C8.59622 13.5742 10.0154 13.8342 10.4921 13.91C11.3479 14.04 12.4475 14.1375 13.8341 14.1375C15.2912 14.1375 16.4558 14.0346 17.355 13.8992C18.2054 13.7746 19.4133 13.455 19.6516 13.2438ZM19.6516 12.7563V12.8917C19.5 13.0704 18.5575 13.3413 17.3766 13.5363C16.2036 13.7067 15.0194 13.7882 13.8341 13.78C12.7104 13.7866 11.5878 13.7088 10.4758 13.5471C9.64627 13.4512 8.83568 13.2322 8.0708 12.8971V12.7346C8.59622 13.0867 10.0208 13.3413 10.4921 13.4171C11.5986 13.5792 12.7158 13.657 13.8341 13.65C15.2912 13.65 16.4612 13.5417 17.355 13.4063C18.2054 13.2871 19.4133 12.9675 19.6516 12.7563ZM13.8558 16.4829C11.3858 16.4721 9.26788 15.8113 8.8183 15.7029L9.1433 16.2121C10.6626 16.7502 12.2659 17.0125 13.8775 16.9867C15.7571 16.9325 17.3983 16.7863 18.5521 16.2229L18.8879 15.6921C18.1025 16.0658 15.4212 16.4829 13.8504 16.4829" fill="#FFFF00"/>
<path d="M13.8558 16.4829C11.3858 16.4721 9.26788 15.8113 8.8183 15.7029L9.1433 16.2121C10.6626 16.7502 12.2659 17.0125 13.8775 16.9867C15.7571 16.9325 17.3983 16.7863 18.5521 16.2229L18.8879 15.6921C18.1025 16.0658 15.4212 16.4829 13.8504 16.4829M19.6516 13.2438V13.3792C19.5 13.5633 18.5575 13.8342 17.3766 14.0292C16.2035 14.1978 15.0193 14.2775 13.8341 14.2675C12.7103 14.2771 11.5875 14.1992 10.4758 14.0346C9.64627 13.9387 8.83568 13.7197 8.0708 13.3846V13.2275C8.59622 13.5742 10.0154 13.8342 10.4921 13.91C11.3479 14.04 12.4475 14.1375 13.8341 14.1375C15.2912 14.1375 16.4558 14.0346 17.355 13.8992C18.2054 13.7746 19.4133 13.455 19.6516 13.2438V13.2438ZM19.6516 12.7563V12.8917C19.5 13.0704 18.5575 13.3413 17.3766 13.5363C16.2036 13.7067 15.0194 13.7882 13.8341 13.78C12.7104 13.7866 11.5878 13.7088 10.4758 13.5471C9.64627 13.4512 8.83568 13.2322 8.0708 12.8971V12.7346C8.59622 13.0867 10.0208 13.3413 10.4921 13.4171C11.5986 13.5792 12.7158 13.657 13.8341 13.65C15.2912 13.65 16.4612 13.5417 17.355 13.4063C18.2054 13.2871 19.4133 12.9675 19.6516 12.7563V12.7563Z" stroke="black" stroke-width="0.075" stroke-linecap="round" stroke-linejoin="round"/>
<path fill-rule="evenodd" clip-rule="evenodd" d="M18.6821 16.1038C18.6328 16.1768 18.5822 16.2491 18.5304 16.3204C17.9887 16.5154 17.1221 16.7213 16.7646 16.7754C15.8053 16.9542 14.8316 17.0448 13.8558 17.0463C11.6675 17.0138 9.87458 16.5858 9.03499 16.2175L8.96458 16.1038L8.97541 16.0821L9.08916 16.1308C10.6308 16.641 12.2429 16.906 13.8667 16.9163C14.885 16.9163 15.8979 16.8025 16.7158 16.6563C17.9725 16.4017 18.4817 16.2121 18.6387 16.1254L18.6767 16.1038H18.6821ZM18.9692 15.6271C18.9335 15.6905 18.8974 15.7537 18.8608 15.8167C18.5683 15.925 17.7775 16.1525 16.6237 16.315C15.8654 16.4179 15.3942 16.5208 13.8829 16.5479C12.1553 16.5306 10.4384 16.2754 8.78041 15.7896L8.72083 15.6542C10.4053 16.1197 12.1411 16.3745 13.8883 16.4125C15.2696 16.3854 15.86 16.2825 16.6129 16.1796C17.9562 15.9738 18.6333 15.7463 18.8337 15.6867C18.8339 15.6831 18.8339 15.6795 18.8337 15.6758L18.9746 15.6217L18.9692 15.6271Z" fill="#FFFF00" stroke="black" stroke-width="0.075" stroke-linecap="round" stroke-linejoin="round"/>
<path fill-rule="evenodd" clip-rule="evenodd" d="M19.0016 12.87C19.007 14.495 18.1728 15.9575 17.5066 16.5967C16.5226 17.5564 15.2085 18.103 13.8341 18.1242C12.1928 18.1513 10.6491 17.0842 10.232 16.6129C9.29894 15.6234 8.76789 14.3219 8.74242 12.9621C8.83992 11.1854 9.53867 9.95042 10.5462 9.1C11.5249 8.29431 12.756 7.85899 14.0237 7.87042C14.7636 7.90629 15.488 8.09635 16.1502 8.42842C16.8125 8.76048 17.3981 9.22723 17.8695 9.79875C18.5466 10.6221 18.8445 11.5158 19.0016 12.87ZM13.8449 7.3125C15.3602 7.31246 16.8141 7.91143 17.8896 8.97885C18.9652 10.0463 19.5751 11.4956 19.5866 13.0108C19.5866 13.7627 19.4385 14.5072 19.1508 15.2019C18.863 15.8965 18.4413 16.5277 17.9096 17.0593C17.378 17.591 16.7468 18.0127 16.0522 18.3004C15.3576 18.5882 14.613 18.7362 13.8612 18.7362C13.1093 18.7362 12.3648 18.5882 11.6701 18.3004C10.9755 18.0127 10.3443 17.591 9.81269 17.0593C9.28103 16.5277 8.8593 15.8965 8.57157 15.2019C8.28384 14.5072 8.13575 13.7627 8.13575 13.0108C8.13033 9.86917 10.6978 7.3125 13.8449 7.3125Z" fill="#FFFF00"/>
<path d="M13.8449 7.3125C15.3602 7.31246 16.8141 7.91143 17.8896 8.97885C18.9652 10.0463 19.5751 11.4956 19.5866 13.0108C19.5866 13.7627 19.4385 14.5072 19.1508 15.2019C18.863 15.8965 18.4413 16.5277 17.9096 17.0593C17.378 17.591 16.7468 18.0127 16.0522 18.3004C15.3576 18.5882 14.613 18.7362 13.8612 18.7362C13.1093 18.7362 12.3648 18.5882 11.6701 18.3004C10.9755 18.0127 10.3443 17.591 9.81269 17.0593C9.28103 16.5277 8.8593 15.8965 8.57157 15.2019C8.28384 14.5072 8.13575 13.7627 8.13575 13.0108C8.13033 9.86917 10.6978 7.3125 13.8449 7.3125M19.0016 12.87C19.007 14.495 18.1728 15.9575 17.5066 16.5967C16.5226 17.5564 15.2085 18.103 13.8341 18.1242C12.1928 18.1513 10.6491 17.0842 10.232 16.6129C9.29894 15.6234 8.76789 14.3219 8.74242 12.9621C8.83992 11.1854 9.53867 9.95042 10.5462 9.1C11.5249 8.29431 12.756 7.85899 14.0237 7.87042C14.7636 7.90629 15.488 8.09635 16.1502 8.42842C16.8125 8.76048 17.3981 9.22723 17.8695 9.79875C18.5466 10.6221 18.8445 11.5158 19.0016 12.87V12.87Z" stroke="black" stroke-width="0.075" stroke-linecap="round" stroke-linejoin="round"/>
<path fill-rule="evenodd" clip-rule="evenodd" d="M13.8612 7.2854C17.0137 7.2854 19.5812 9.8529 19.5812 13.0054C19.5812 16.1579 17.0137 18.7254 13.8666 18.7254C10.7195 18.7254 8.14661 16.1579 8.14661 13.0054C8.14661 9.8529 10.7141 7.2854 13.8666 7.2854H13.8612ZM8.26577 13C8.26577 16.0767 10.7954 18.5954 13.8612 18.5954C16.927 18.5954 19.4566 16.0767 19.4566 13C19.4566 9.92332 16.927 7.40457 13.8612 7.40457C10.7954 7.40457 8.26577 9.92332 8.26577 13Z" fill="#FFFF00" stroke="black" stroke-width="0.075" stroke-linecap="round" stroke-linejoin="round"/>
<path fill-rule="evenodd" clip-rule="evenodd" d="M13.8666 7.76208C15.2544 7.76637 16.5842 8.3196 17.5656 9.30097C18.547 10.2823 19.1002 11.6121 19.1045 13C19.1002 14.3884 18.5472 15.7187 17.5659 16.701C16.5847 17.6832 15.2549 18.2376 13.8666 18.2433C10.9957 18.2433 8.62866 15.8817 8.62866 13C8.63437 11.6126 9.18805 10.2836 10.1691 9.30254C11.1502 8.32147 12.4792 7.76779 13.8666 7.76208ZM8.75325 13C8.75325 15.8167 11.0607 18.1133 13.8666 18.1133C16.6724 18.1133 18.9799 15.8113 18.9799 13C18.9799 10.1833 16.6724 7.88667 13.8666 7.88667C12.5122 7.89237 11.2149 8.43293 10.2572 9.39063C9.2995 10.3483 8.75895 11.6456 8.75325 13Z" fill="#FFFF00" stroke="black" stroke-width="0.075" stroke-linecap="round" stroke-linejoin="round"/>
<path fill-rule="evenodd" clip-rule="evenodd" d="M14.0996 7.25833H13.6067V18.7579H14.0942L14.0996 7.25833Z" fill="#FFFF00" stroke="black" stroke-width="0.075" stroke-linecap="round" stroke-linejoin="round"/>
<path fill-rule="evenodd" clip-rule="evenodd" d="M14.0454 7.19333H14.1699V18.8229H14.0508V7.19333H14.0454ZM13.5579 7.19333H13.6879V18.8229H13.5633V7.19333H13.5579Z" fill="#FFFF00" stroke="black" stroke-width="0.075" stroke-linecap="round" stroke-linejoin="round"/>
<path fill-rule="evenodd" clip-rule="evenodd" d="M19.5866 13.2275V12.805L19.2399 12.48L17.2737 11.96L14.4462 11.6729L11.0337 11.8462L8.60701 12.4204L8.11951 12.7833V13.2112L9.35992 12.6533L12.3066 12.1929H15.1395L17.2195 12.4204L18.6603 12.7671L19.5866 13.2275Z" fill="#FFFF00" stroke="black" stroke-width="0.075" stroke-linecap="round" stroke-linejoin="round"/>
<path fill-rule="evenodd" clip-rule="evenodd" d="M13.8666 12.1225C15.2154 12.1225 16.5208 12.2471 17.5662 12.4475C18.6387 12.6642 19.3916 12.935 19.6516 13.2329V13.3846C19.3375 13.0054 18.3246 12.7346 17.5391 12.5721C16.51 12.3771 15.21 12.2471 13.8612 12.2471C12.4475 12.2471 11.1258 12.3879 10.1075 12.5829C9.29497 12.7454 8.20622 13.0704 8.0708 13.3846V13.2275C8.14122 13.0108 8.95372 12.6858 10.0912 12.4529C11.115 12.2525 12.4366 12.1225 13.8612 12.1225H13.8666ZM13.8666 11.6296C15.1071 11.6271 16.3452 11.7359 17.5662 11.9546C18.6387 12.1712 19.3916 12.4421 19.6516 12.7454V12.8917C19.3375 12.5179 18.3246 12.2417 17.5391 12.0846C16.51 11.8842 15.21 11.7596 13.8612 11.7596C12.6041 11.7556 11.3493 11.868 10.1129 12.0954C9.32747 12.2417 8.19538 12.5775 8.0708 12.8917V12.74C8.14663 12.5233 8.96997 12.1821 10.0912 11.9654C11.1204 11.765 12.4366 11.6296 13.8666 11.6296ZM13.8341 9.12708C15.9629 9.11624 17.8208 9.42499 18.6712 9.85833L18.98 10.4C18.2433 9.99916 16.2391 9.58749 13.8396 9.64166C11.8841 9.65791 9.7933 9.85833 8.74788 10.4217L9.11622 9.80416C9.97747 9.35458 12.0033 9.12708 13.8341 9.12708Z" fill="#FFFF00"/>
<path d="M13.8341 9.12708C15.9629 9.11624 17.8208 9.42499 18.6712 9.85833L18.98 10.4C18.2433 9.99916 16.2391 9.58749 13.8396 9.64166C11.8841 9.65791 9.7933 9.85833 8.74788 10.4217L9.11622 9.80416C9.97747 9.35458 12.0033 9.12708 13.8341 9.12708M13.8666 12.1225C15.2154 12.1225 16.5208 12.2471 17.5662 12.4475C18.6387 12.6642 19.3916 12.935 19.6516 13.2329V13.3846C19.3375 13.0054 18.3246 12.7346 17.5391 12.5721C16.51 12.3771 15.21 12.2471 13.8612 12.2471C12.4475 12.2471 11.1258 12.3879 10.1075 12.5829C9.29497 12.7454 8.20622 13.0704 8.0708 13.3846V13.2275C8.14122 13.0108 8.95372 12.6858 10.0912 12.4529C11.115 12.2525 12.4366 12.1225 13.8612 12.1225H13.8666ZM13.8666 11.6296C15.1071 11.6271 16.3452 11.7359 17.5662 11.9546C18.6387 12.1712 19.3916 12.4421 19.6516 12.7454V12.8917C19.3375 12.5179 18.3246 12.2417 17.5391 12.0846C16.51 11.8842 15.21 11.7596 13.8612 11.7596C12.6041 11.7556 11.3493 11.868 10.1129 12.0954C9.32747 12.2417 8.19538 12.5775 8.0708 12.8917V12.74C8.14663 12.5233 8.96997 12.1821 10.0912 11.9654C11.1204 11.765 12.4366 11.6296 13.8666 11.6296V11.6296Z" stroke="black" stroke-width="0.075" stroke-linecap="round" stroke-linejoin="round"/>
<path fill-rule="evenodd" clip-rule="evenodd" d="M13.8666 9.57124C14.9781 9.55249 16.0891 9.63042 17.187 9.80416C18.0537 9.96666 18.8825 10.205 19.0016 10.335L19.0937 10.4975C18.8066 10.3133 18.0862 10.1021 17.1654 9.92874C16.2445 9.75541 15.0691 9.69583 13.8612 9.70124C12.4908 9.69583 11.4237 9.76624 10.5137 9.92874C9.88641 10.0167 9.27736 10.205 8.70996 10.4867L8.80204 10.3187C9.12704 10.1562 9.63079 9.95583 10.4866 9.79874C11.4345 9.62541 12.5125 9.57666 13.8666 9.57124ZM13.8666 9.08374C15.0258 9.07291 16.1741 9.13791 17.0679 9.30041C17.6469 9.38638 18.2073 9.56951 18.7254 9.84208L18.8608 10.0587C18.6333 9.80416 17.7775 9.56041 17.0137 9.43041C16.1254 9.27333 15.0258 9.21374 13.8666 9.20291C12.7876 9.19329 11.7096 9.27301 10.6437 9.44124C10.0864 9.5189 9.54508 9.68531 9.04038 9.93416L9.15954 9.75541C9.47371 9.59291 9.98288 9.44124 10.622 9.31666C11.695 9.14622 12.7803 9.06649 13.8666 9.07833V9.08374ZM16.705 15.3833C15.7661 15.2208 14.8139 15.1482 13.8612 15.1667C10.3133 15.21 9.17038 15.8979 9.02954 16.1037L8.75871 15.6704C9.66871 15.0204 11.597 14.6521 13.8829 14.6846C15.0691 14.7062 16.0929 14.7875 16.9487 14.9554L16.705 15.3887" fill="#FFFF00"/>
<path d="M16.705 15.3833C15.7661 15.2208 14.8139 15.1482 13.8612 15.1667C10.3133 15.21 9.17038 15.8979 9.02954 16.1037L8.75871 15.6704C9.66871 15.0204 11.597 14.6521 13.8829 14.6846C15.0691 14.7062 16.0929 14.7875 16.9487 14.9554L16.705 15.3887M13.8666 9.57124C14.9781 9.55249 16.0891 9.63042 17.187 9.80416C18.0537 9.96666 18.8825 10.205 19.0016 10.335L19.0937 10.4975C18.8066 10.3133 18.0862 10.1021 17.1654 9.92874C16.2445 9.75541 15.0691 9.69583 13.8612 9.70124C12.4908 9.69583 11.4237 9.76624 10.5137 9.92874C9.88641 10.0167 9.27736 10.205 8.70996 10.4867L8.80204 10.3187C9.12704 10.1562 9.63079 9.95583 10.4866 9.79874C11.4345 9.62541 12.5125 9.57666 13.8666 9.57124V9.57124ZM13.8666 9.08374C15.0258 9.07291 16.1741 9.13791 17.0679 9.30041C17.6469 9.38638 18.2073 9.56951 18.7254 9.84208L18.8608 10.0587C18.6333 9.80416 17.7775 9.56041 17.0137 9.43041C16.1254 9.27333 15.0258 9.21374 13.8666 9.20291C12.7876 9.19329 11.7096 9.27301 10.6437 9.44124C10.0864 9.5189 9.54508 9.68531 9.04038 9.93416L9.15954 9.75541C9.47371 9.59291 9.98288 9.44124 10.622 9.31666C11.695 9.14622 12.7803 9.06649 13.8666 9.07833V9.08374Z" stroke="black" stroke-width="0.075" stroke-linecap="round" stroke-linejoin="round"/>
<path fill-rule="evenodd" clip-rule="evenodd" d="M13.8449 15.1071C14.8307 15.1233 15.7949 15.1612 16.732 15.3346L16.667 15.4537C15.8003 15.2912 14.8687 15.2371 13.8503 15.2371C12.5341 15.2262 11.2124 15.3508 10.0587 15.6812C9.69575 15.7842 9.0945 16.0171 9.0295 16.2121L8.9645 16.1037C8.98617 15.9846 9.34367 15.7462 10.0262 15.5621C11.3478 15.1829 12.5828 15.1125 13.8449 15.1071ZM13.8882 14.6087C14.9288 14.6077 15.9674 14.6983 16.992 14.8796L16.9216 15.0042C15.921 14.8206 14.9055 14.7318 13.8882 14.7387C12.5774 14.7387 11.1853 14.8362 9.91783 15.2046C9.51158 15.3237 8.802 15.5837 8.78033 15.7842L8.71533 15.665C8.72617 15.4808 9.33825 15.2371 9.89075 15.08C11.1637 14.7062 12.5612 14.6142 13.8882 14.6087Z" fill="#FFFF00" stroke="black" stroke-width="0.075" stroke-linecap="round" stroke-linejoin="round"/>
<path fill-rule="evenodd" clip-rule="evenodd" d="M18.9258 15.7354L18.5033 16.4017L17.2737 15.3129L14.0995 13.1733L10.5137 11.2071L8.65576 10.5733L9.05118 9.83665L9.1866 9.76624L10.3403 10.0533L14.1537 12.0196L16.3528 13.4062L18.1999 14.7333L18.9528 15.6L18.9258 15.7354Z" fill="#FFFF00" stroke="black" stroke-width="0.075" stroke-linecap="round" stroke-linejoin="round"/>
<path fill-rule="evenodd" clip-rule="evenodd" d="M8.5908 10.5896C8.9158 10.3729 11.31 11.4346 13.8233 12.9512C16.3204 14.4679 18.7146 16.1796 18.4979 16.4992L18.4275 16.6129L18.395 16.64C18.4004 16.6346 18.4383 16.5858 18.395 16.4721C18.2866 16.12 16.5858 14.7658 13.7746 13.065C11.0283 11.4346 8.74247 10.4487 8.52039 10.7304L8.5908 10.5896ZM19.0125 15.73C19.2183 15.3183 16.9975 13.6446 14.2404 12.0142C11.4237 10.4162 9.38705 9.47374 9.0133 9.75541L8.93747 9.91249C8.93747 9.91791 8.93747 9.90166 8.95914 9.88541C9.02414 9.83124 9.13789 9.83124 9.18664 9.83124C9.8258 9.84208 11.6512 10.6817 14.2133 12.1496C15.34 12.7996 18.9583 15.1287 18.9421 15.7787C18.9421 15.8329 18.9475 15.8437 18.9258 15.8762L19.0179 15.7354L19.0125 15.73Z" fill="#FFFF00" stroke="black" stroke-width="0.075" stroke-linecap="round" stroke-linejoin="round"/>
<path d="M10.4347 13.6374C10.4355 14.0859 10.5254 14.5298 10.6989 14.9433C10.8725 15.3569 11.1263 15.7319 11.4458 16.0467C11.7614 16.3672 12.1373 16.622 12.5517 16.7965C12.9662 16.971 13.4112 17.0618 13.8609 17.0636C14.7711 17.0636 15.644 16.7019 16.2876 16.0583C16.6059 15.7418 16.8586 15.3655 17.0312 14.951C17.2037 14.5366 17.2926 14.0921 17.2929 13.6432V9.06716L10.4347 9.0556V13.6374Z" fill="white" stroke="black" stroke-width="0.0933336"/>
<path d="M10.5618 13.6432C10.563 14.0734 10.6494 14.4991 10.816 14.8958C10.9826 15.2925 11.2261 15.6522 11.5324 15.9543C12.1476 16.5727 12.9829 16.9218 13.8551 16.925C14.7258 16.9255 15.5611 16.5805 16.1778 15.9659C16.4831 15.6633 16.7255 15.3033 16.8911 14.9067C17.0567 14.5101 17.1422 14.0846 17.1427 13.6547V9.20584H10.5733V13.6432M15.8311 10.5405V13.3659L15.8253 13.6605C15.8273 13.9186 15.7771 14.1745 15.6778 14.4128C15.5786 14.651 15.4322 14.8668 15.2476 15.0472C14.8801 15.4159 14.3814 15.6237 13.8609 15.625C13.3178 15.625 12.8382 15.3939 12.48 15.0356C12.1113 14.6682 11.9035 14.1695 11.9022 13.649V10.529L15.8311 10.5405Z" fill="#FF0000"/>
<path d="M10.5618 13.6432C10.563 14.0734 10.6494 14.4991 10.816 14.8958C10.9826 15.2925 11.2261 15.6522 11.5324 15.9543C12.1476 16.5727 12.9829 16.9218 13.8551 16.925C14.7258 16.9255 15.5611 16.5805 16.1778 15.9659C16.4831 15.6633 16.7255 15.3033 16.8911 14.9067C17.0567 14.5101 17.1422 14.0846 17.1427 13.6547V9.20584H10.5733V13.6432M15.8311 10.5405V13.3659L15.8253 13.6605C15.8273 13.9186 15.7771 14.1745 15.6778 14.4128C15.5786 14.651 15.4322 14.8668 15.2476 15.0472C14.8801 15.4159 14.3814 15.6237 13.8609 15.625C13.3178 15.625 12.8382 15.3939 12.48 15.0356C12.1113 14.6682 11.9035 14.1695 11.9022 13.649V10.529L15.8311 10.5405Z" stroke="black" stroke-width="0.0666669"/>
<path d="M10.9894 10.3672C10.9952 10.0494 11.2205 9.97427 11.2205 9.97427C11.2263 9.97427 11.4689 10.0552 11.4689 10.3729H10.9894" fill="#FFFF00"/>
<path d="M10.7929 9.98005L10.7524 10.3441H10.9951C10.9951 10.0436 11.2262 9.99738 11.2262 9.99738C11.232 9.99738 11.4573 10.0609 11.4631 10.3441H11.7058L11.6596 9.97427H10.7929V9.98005ZM10.7351 10.3498H11.7173C11.7347 10.3498 11.752 10.3672 11.752 10.3903C11.752 10.4192 11.7347 10.4365 11.7173 10.4365H10.7351C10.7178 10.4365 10.7004 10.4192 10.7004 10.3903C10.7004 10.3672 10.7178 10.3498 10.7409 10.3498H10.7351Z" fill="#FFFF00" stroke="black" stroke-width="0.0666669"/>
<path d="M11.0933 10.344C11.0933 10.1534 11.2262 10.1014 11.2262 10.1014C11.2262 10.1014 11.3591 10.1591 11.3591 10.344H11.0933ZM10.7582 9.82404H11.7C11.7173 9.82404 11.7346 9.84715 11.7346 9.87026C11.7346 9.88759 11.7173 9.90493 11.7 9.90493H10.7582C10.7408 9.90493 10.7235 9.88759 10.7235 9.86448C10.7235 9.84715 10.7408 9.82982 10.7582 9.82982V9.82404ZM10.7813 9.9107H11.6711C11.6884 9.9107 11.7057 9.92804 11.7057 9.95115C11.7057 9.97426 11.6884 9.99159 11.6711 9.99159H10.7755C10.7524 9.99159 10.7408 9.97426 10.7408 9.95115C10.7408 9.92804 10.7524 9.9107 10.7755 9.9107H10.7813ZM11.0702 9.29826H11.1395V9.34448H11.1915V9.29826H11.2666V9.35026H11.3186V9.29248H11.388V9.40804C11.388 9.43115 11.3764 9.4427 11.3591 9.4427H11.1048C11.0875 9.4427 11.0702 9.43115 11.0702 9.41381V9.29826ZM11.336 9.45426L11.3533 9.82404H11.1048L11.1222 9.44848H11.336" fill="#FFFF00"/>
<path d="M11.336 9.45426L11.3533 9.82404H11.1048L11.1222 9.44848H11.336M11.0933 10.344C11.0933 10.1534 11.2262 10.1014 11.2262 10.1014C11.2262 10.1014 11.3591 10.1591 11.3591 10.344H11.0933ZM10.7582 9.82404H11.7C11.7173 9.82404 11.7346 9.84715 11.7346 9.87026C11.7346 9.88759 11.7173 9.90493 11.7 9.90493H10.7582C10.7408 9.90493 10.7235 9.88759 10.7235 9.86448C10.7235 9.84715 10.7408 9.82982 10.7582 9.82982V9.82404ZM10.7813 9.9107H11.6711C11.6884 9.9107 11.7057 9.92804 11.7057 9.95115C11.7057 9.97426 11.6884 9.99159 11.6711 9.99159H10.7755C10.7524 9.99159 10.7408 9.97426 10.7408 9.95115C10.7408 9.92804 10.7524 9.9107 10.7755 9.9107H10.7813ZM11.0702 9.29826H11.1395V9.34448H11.1915V9.29826H11.2666V9.35026H11.3186V9.29248H11.388V9.40804C11.388 9.43115 11.3764 9.4427 11.3591 9.4427H11.1048C11.0875 9.4427 11.0702 9.43115 11.0702 9.41381V9.29826Z" stroke="black" stroke-width="0.0666669"/>
<path d="M11.0356 9.62759V9.82404H10.8044V9.62759H11.0356Z" fill="#FFFF00" stroke="black" stroke-width="0.0666669"/>
<path d="M11.0356 9.62759V9.82404H10.8044V9.62759H11.0356Z" fill="#FFFF00" stroke="black" stroke-width="0.0666669"/>
<path d="M10.764 9.47736H10.8334V9.53513H10.8854V9.47736H10.9547V9.53513H11.0067V9.47736H11.076V9.59291C11.076 9.61602 11.0645 9.62758 11.0471 9.62758H10.7987C10.7895 9.62758 10.7807 9.62393 10.7742 9.61743C10.7677 9.61092 10.764 9.60211 10.764 9.59291V9.47736Z" fill="#FFFF00" stroke="black" stroke-width="0.0666669"/>
<path d="M10.764 9.47736H10.8334V9.53513H10.8854V9.47736H10.9547V9.53513H11.0067V9.47736H11.076V9.59291C11.076 9.61602 11.0645 9.62758 11.0471 9.62758H10.7987C10.7895 9.62758 10.7807 9.62393 10.7742 9.61743C10.7677 9.61092 10.764 9.60211 10.764 9.59291V9.47736Z" fill="#FFFF00" stroke="black" stroke-width="0.0666669"/>
<path d="M11.2031 9.56982C11.2031 9.53516 11.2551 9.53516 11.2551 9.56982V9.66227H11.2031V9.56982Z" fill="black"/>
<path d="M10.8969 9.69693C10.8969 9.66226 10.9431 9.66226 10.9431 9.69693V9.76626H10.8969V9.69693Z" fill="black"/>
<path d="M10.8969 9.69693C10.8969 9.66226 10.9431 9.66226 10.9431 9.69693V9.76626H10.8969V9.69693Z" fill="black"/>
<path d="M10.9894 10.3672C10.9952 10.0494 11.2205 9.97427 11.2205 9.97427C11.2263 9.97427 11.4689 10.0552 11.4689 10.3729H10.9894" fill="#FFFF00"/>
<path d="M10.7929 9.98005L10.7524 10.3441H10.9951C10.9951 10.0436 11.2262 9.99738 11.2262 9.99738C11.232 9.99738 11.4573 10.0609 11.4631 10.3441H11.7058L11.6596 9.97427H10.7929V9.98005ZM10.7351 10.3498H11.7173C11.7347 10.3498 11.752 10.3672 11.752 10.3903C11.752 10.4192 11.7347 10.4365 11.7173 10.4365H10.7351C10.7178 10.4365 10.7004 10.4192 10.7004 10.3903C10.7004 10.3672 10.7178 10.3498 10.7409 10.3498H10.7351Z" fill="#FFFF00" stroke="black" stroke-width="0.0666669"/>
<path d="M11.0933 10.344C11.0933 10.1534 11.2262 10.1014 11.2262 10.1014C11.2262 10.1014 11.3591 10.1591 11.3591 10.344H11.0933ZM10.7582 9.82404H11.7C11.7173 9.82404 11.7346 9.84715 11.7346 9.87026C11.7346 9.88759 11.7173 9.90493 11.7 9.90493H10.7582C10.7408 9.90493 10.7235 9.88759 10.7235 9.86448C10.7235 9.84715 10.7408 9.82982 10.7582 9.82982V9.82404ZM10.7813 9.9107H11.6711C11.6884 9.9107 11.7057 9.92804 11.7057 9.95115C11.7057 9.97426 11.6884 9.99159 11.6711 9.99159H10.7755C10.7524 9.99159 10.7408 9.97426 10.7408 9.95115C10.7408 9.92804 10.7524 9.9107 10.7755 9.9107H10.7813ZM11.0702 9.29826H11.1395V9.34448H11.1915V9.29826H11.2666V9.35026H11.3186V9.29248H11.388V9.40804C11.388 9.43115 11.3764 9.4427 11.3591 9.4427H11.1048C11.0875 9.4427 11.0702 9.43115 11.0702 9.41381V9.29826ZM11.336 9.45426L11.3533 9.82404H11.1048L11.1222 9.44848H11.336" fill="#FFFF00"/>
<path d="M11.336 9.45426L11.3533 9.82404H11.1048L11.1222 9.44848H11.336M11.0933 10.344C11.0933 10.1534 11.2262 10.1014 11.2262 10.1014C11.2262 10.1014 11.3591 10.1591 11.3591 10.344H11.0933ZM10.7582 9.82404H11.7C11.7173 9.82404 11.7346 9.84715 11.7346 9.87026C11.7346 9.88759 11.7173 9.90493 11.7 9.90493H10.7582C10.7408 9.90493 10.7235 9.88759 10.7235 9.86448C10.7235 9.84715 10.7408 9.82982 10.7582 9.82982V9.82404ZM10.7813 9.9107H11.6711C11.6884 9.9107 11.7057 9.92804 11.7057 9.95115C11.7057 9.97426 11.6884 9.99159 11.6711 9.99159H10.7755C10.7524 9.99159 10.7408 9.97426 10.7408 9.95115C10.7408 9.92804 10.7524 9.9107 10.7755 9.9107H10.7813ZM11.0702 9.29826H11.1395V9.34448H11.1915V9.29826H11.2666V9.35026H11.3186V9.29248H11.388V9.40804C11.388 9.43115 11.3764 9.4427 11.3591 9.4427H11.1048C11.0875 9.4427 11.0702 9.43115 11.0702 9.41381V9.29826Z" stroke="black" stroke-width="0.0666669"/>
<path d="M11.0356 9.62759V9.82404H10.8044V9.62759H11.0356Z" fill="#FFFF00" stroke="black" stroke-width="0.0666669"/>
<path d="M11.0356 9.62759V9.82404H10.8044V9.62759H11.0356Z" fill="#FFFF00" stroke="black" stroke-width="0.0666669"/>
<path d="M10.764 9.47736H10.8334V9.53513H10.8854V9.47736H10.9547V9.53513H11.0067V9.47736H11.076V9.59291C11.076 9.61602 11.0645 9.62758 11.0471 9.62758H10.7987C10.7895 9.62758 10.7807 9.62393 10.7742 9.61743C10.7677 9.61092 10.764 9.60211 10.764 9.59291V9.47736Z" fill="#FFFF00" stroke="black" stroke-width="0.0666669"/>
<path d="M10.764 9.47736H10.8334V9.53513H10.8854V9.47736H10.9547V9.53513H11.0067V9.47736H11.076V9.59291C11.076 9.61602 11.0645 9.62758 11.0471 9.62758H10.7987C10.7895 9.62758 10.7807 9.62393 10.7742 9.61743C10.7677 9.61092 10.764 9.60211 10.764 9.59291V9.47736Z" fill="#FFFF00" stroke="black" stroke-width="0.0666669"/>
<path d="M11.2031 9.56982C11.2031 9.53516 11.2551 9.53516 11.2551 9.56982V9.66227H11.2031V9.56982Z" fill="black"/>
<path d="M10.8969 9.69693C10.8969 9.66226 10.9431 9.66226 10.9431 9.69693V9.76626H10.8969V9.69693Z" fill="black"/>
<path d="M10.8969 9.69693C10.8969 9.66226 10.9431 9.66226 10.9431 9.69693V9.76626H10.8969V9.69693Z" fill="black"/>
<path d="M12.0321 15.8303C11.8107 15.6023 11.9161 15.3895 11.9161 15.3895C11.9202 15.3854 12.1486 15.2702 12.3741 15.4941L12.0362 15.8344" fill="#FFFF00"/>
<path d="M11.6189 15.697L11.8487 15.9821L12.0197 15.81C11.8065 15.5983 11.9366 15.4017 11.9366 15.4017C11.9406 15.3976 12.1445 15.2825 12.3495 15.4779L12.5205 15.3057L12.2255 15.0779L11.6148 15.6929L11.6189 15.697ZM11.8406 15.9985L12.5327 15.3016C12.5449 15.2893 12.5694 15.2892 12.5858 15.3055C12.6063 15.3258 12.6064 15.3503 12.5942 15.3626L11.9021 16.0596C11.8899 16.0719 11.8654 16.072 11.8449 16.0516C11.8285 16.0353 11.8284 16.0108 11.8447 15.9944L11.8406 15.9985Z" fill="#FFFF00" stroke="black" stroke-width="0.0666669"/>
<path d="M12.0889 15.7403C11.9536 15.6059 12.0103 15.475 12.0103 15.475C12.0103 15.475 12.145 15.4214 12.2761 15.5517L12.0889 15.7403ZM11.4838 15.6116L12.1474 14.9434C12.1596 14.9311 12.1882 14.9351 12.2046 14.9514C12.2169 14.9636 12.217 14.9881 12.2048 15.0004L11.5412 15.6686C11.5289 15.6809 11.5044 15.681 11.488 15.6647C11.4757 15.6525 11.4756 15.628 11.4879 15.6157L11.4838 15.6116ZM11.5615 15.6563L12.1885 15.025C12.2007 15.0127 12.2252 15.0126 12.2416 15.0289C12.258 15.0451 12.2581 15.0696 12.2459 15.0819L11.6149 15.7174C11.5986 15.7338 11.5781 15.7298 11.5617 15.7135C11.5453 15.6972 11.5412 15.6768 11.5575 15.6604L11.5615 15.6563ZM11.3305 15.0198L11.3794 14.9706L11.4122 15.0031L11.4488 14.9662L11.416 14.9337L11.4689 14.8804L11.5058 14.917L11.5425 14.8801L11.5015 14.8394L11.5503 14.7902L11.6323 14.8716C11.6487 14.8879 11.6488 14.9043 11.6366 14.9166L11.4574 15.097C11.4452 15.1093 11.4248 15.1134 11.4125 15.1012L11.3305 15.0198ZM11.6285 14.9411L11.9031 15.1894L11.728 15.3657L11.4738 15.0887L11.6244 14.937" fill="#FFFF00"/>
<path d="M11.6285 14.9411L11.9031 15.1894L11.728 15.3657L11.4738 15.0887L11.6244 14.937M12.0889 15.7403C11.9536 15.6059 12.0103 15.475 12.0103 15.475C12.0103 15.475 12.145 15.4214 12.2761 15.5517L12.0889 15.7403ZM11.4838 15.6116L12.1474 14.9434C12.1596 14.9311 12.1882 14.9351 12.2046 14.9514C12.2169 14.9636 12.217 14.9881 12.2048 15.0004L11.5412 15.6686C11.5289 15.6809 11.5044 15.681 11.488 15.6647C11.4757 15.6525 11.4756 15.628 11.4879 15.6157L11.4838 15.6116ZM11.5615 15.6563L12.1885 15.025C12.2007 15.0127 12.2252 15.0126 12.2416 15.0289C12.258 15.0451 12.2581 15.0696 12.2459 15.0819L11.6149 15.7174C11.5986 15.7338 11.5781 15.7298 11.5617 15.7135C11.5453 15.6972 11.5412 15.6768 11.5575 15.6604L11.5615 15.6563ZM11.3305 15.0198L11.3794 14.9706L11.4122 15.0031L11.4488 14.9662L11.416 14.9337L11.4689 14.8804L11.5058 14.917L11.5425 14.8801L11.5015 14.8394L11.5503 14.7902L11.6323 14.8716C11.6487 14.8879 11.6488 14.9043 11.6366 14.9166L11.4574 15.097C11.4452 15.1093 11.4248 15.1134 11.4125 15.1012L11.3305 15.0198Z" stroke="black" stroke-width="0.0666669"/>
<path d="M11.5398 15.2764L11.6792 15.4148L11.5163 15.5788L11.377 15.4404L11.5398 15.2764Z" fill="#FFFF00" stroke="black" stroke-width="0.0666669"/>
<path d="M11.5398 15.2764L11.6792 15.4148L11.5163 15.5788L11.377 15.4404L11.5398 15.2764Z" fill="#FFFF00" stroke="black" stroke-width="0.0666669"/>
<path d="M11.2419 15.3633L11.2908 15.3141L11.3318 15.3548L11.3684 15.3179L11.3274 15.2772L11.3763 15.228L11.4173 15.2687L11.4539 15.2318L11.4129 15.1911L11.4618 15.1419L11.5438 15.2233C11.5602 15.2396 11.5602 15.2559 11.548 15.2682L11.373 15.4445C11.3665 15.451 11.3577 15.4547 11.3485 15.4547C11.3393 15.4548 11.3305 15.4512 11.3239 15.4447L11.2419 15.3633Z" fill="#FFFF00" stroke="black" stroke-width="0.0666669"/>
<path d="M11.2419 15.3633L11.2908 15.3141L11.3318 15.3548L11.3684 15.3179L11.3274 15.2772L11.3763 15.228L11.4173 15.2687L11.4539 15.2318L11.4129 15.1911L11.4618 15.1419L11.5438 15.2233C11.5602 15.2396 11.5602 15.2559 11.548 15.2682L11.373 15.4445C11.3665 15.451 11.3577 15.4547 11.3485 15.4547C11.3393 15.4548 11.3305 15.4512 11.3239 15.4447L11.2419 15.3633Z" fill="#FFFF00" stroke="black" stroke-width="0.0666669"/>
<path d="M11.617 15.1168C11.5924 15.0924 11.629 15.0555 11.6536 15.0799L11.7192 15.1451L11.6826 15.182L11.617 15.1168Z" fill="black"/>
<path d="M11.4913 15.4237C11.4668 15.3993 11.4993 15.3665 11.5239 15.3909L11.5731 15.4397L11.5405 15.4725L11.4913 15.4237Z" fill="black"/>
<path d="M11.4913 15.4237C11.4668 15.3993 11.4993 15.3665 11.5239 15.3909L11.5731 15.4397L11.5405 15.4725L11.4913 15.4237Z" fill="black"/>
<path d="M10.9894 10.3672C10.9952 10.0494 11.2205 9.97427 11.2205 9.97427C11.2263 9.97427 11.4689 10.0552 11.4689 10.3729H10.9894" fill="#FFFF00"/>
<path d="M10.7929 9.98005L10.7524 10.3441H10.9951C10.9951 10.0436 11.2262 9.99738 11.2262 9.99738C11.232 9.99738 11.4573 10.0609 11.4631 10.3441H11.7058L11.6596 9.97427H10.7929V9.98005ZM10.7351 10.3498H11.7173C11.7347 10.3498 11.752 10.3672 11.752 10.3903C11.752 10.4192 11.7347 10.4365 11.7173 10.4365H10.7351C10.7178 10.4365 10.7004 10.4192 10.7004 10.3903C10.7004 10.3672 10.7178 10.3498 10.7409 10.3498H10.7351Z" fill="#FFFF00" stroke="black" stroke-width="0.0666669"/>
<path d="M11.0933 10.344C11.0933 10.1534 11.2262 10.1014 11.2262 10.1014C11.2262 10.1014 11.3591 10.1591 11.3591 10.344H11.0933ZM10.7582 9.82404H11.7C11.7173 9.82404 11.7346 9.84715 11.7346 9.87026C11.7346 9.88759 11.7173 9.90493 11.7 9.90493H10.7582C10.7408 9.90493 10.7235 9.88759 10.7235 9.86448C10.7235 9.84715 10.7408 9.82982 10.7582 9.82982V9.82404ZM10.7813 9.9107H11.6711C11.6884 9.9107 11.7057 9.92804 11.7057 9.95115C11.7057 9.97426 11.6884 9.99159 11.6711 9.99159H10.7755C10.7524 9.99159 10.7408 9.97426 10.7408 9.95115C10.7408 9.92804 10.7524 9.9107 10.7755 9.9107H10.7813ZM11.0702 9.29826H11.1395V9.34448H11.1915V9.29826H11.2666V9.35026H11.3186V9.29248H11.388V9.40804C11.388 9.43115 11.3764 9.4427 11.3591 9.4427H11.1048C11.0875 9.4427 11.0702 9.43115 11.0702 9.41381V9.29826ZM11.336 9.45426L11.3533 9.82404H11.1048L11.1222 9.44848H11.336" fill="#FFFF00"/>
<path d="M11.336 9.45426L11.3533 9.82404H11.1048L11.1222 9.44848H11.336M11.0933 10.344C11.0933 10.1534 11.2262 10.1014 11.2262 10.1014C11.2262 10.1014 11.3591 10.1591 11.3591 10.344H11.0933ZM10.7582 9.82404H11.7C11.7173 9.82404 11.7346 9.84715 11.7346 9.87026C11.7346 9.88759 11.7173 9.90493 11.7 9.90493H10.7582C10.7408 9.90493 10.7235 9.88759 10.7235 9.86448C10.7235 9.84715 10.7408 9.82982 10.7582 9.82982V9.82404ZM10.7813 9.9107H11.6711C11.6884 9.9107 11.7057 9.92804 11.7057 9.95115C11.7057 9.97426 11.6884 9.99159 11.6711 9.99159H10.7755C10.7524 9.99159 10.7408 9.97426 10.7408 9.95115C10.7408 9.92804 10.7524 9.9107 10.7755 9.9107H10.7813ZM11.0702 9.29826H11.1395V9.34448H11.1915V9.29826H11.2666V9.35026H11.3186V9.29248H11.388V9.40804C11.388 9.43115 11.3764 9.4427 11.3591 9.4427H11.1048C11.0875 9.4427 11.0702 9.43115 11.0702 9.41381V9.29826Z" stroke="black" stroke-width="0.0666669"/>
<path d="M11.0356 9.62759V9.82404H10.8044V9.62759H11.0356Z" fill="#FFFF00" stroke="black" stroke-width="0.0666669"/>
<path d="M11.0356 9.62759V9.82404H10.8044V9.62759H11.0356Z" fill="#FFFF00" stroke="black" stroke-width="0.0666669"/>
<path d="M10.764 9.47736H10.8334V9.53513H10.8854V9.47736H10.9547V9.53513H11.0067V9.47736H11.076V9.59291C11.076 9.61602 11.0645 9.62758 11.0471 9.62758H10.7987C10.7895 9.62758 10.7807 9.62393 10.7742 9.61743C10.7677 9.61092 10.764 9.60211 10.764 9.59291V9.47736Z" fill="#FFFF00" stroke="black" stroke-width="0.0666669"/>
<path d="M10.764 9.47736H10.8334V9.53513H10.8854V9.47736H10.9547V9.53513H11.0067V9.47736H11.076V9.59291C11.076 9.61602 11.0645 9.62758 11.0471 9.62758H10.7987C10.7895 9.62758 10.7807 9.62393 10.7742 9.61743C10.7677 9.61092 10.764 9.60211 10.764 9.59291V9.47736Z" fill="#FFFF00" stroke="black" stroke-width="0.0666669"/>
<path d="M11.2031 9.56982C11.2031 9.53516 11.2551 9.53516 11.2551 9.56982V9.66227H11.2031V9.56982Z" fill="black"/>
<path d="M10.8969 9.69693C10.8969 9.66226 10.9431 9.66226 10.9431 9.69693V9.76626H10.8969V9.69693Z" fill="black"/>
<path d="M10.8969 9.69693C10.8969 9.66226 10.9431 9.66226 10.9431 9.69693V9.76626H10.8969V9.69693Z" fill="black"/>
<path d="M16.7324 10.3672C16.7266 10.0494 16.5013 9.97427 16.5013 9.97427C16.4955 9.97427 16.2529 10.0552 16.2529 10.3729H16.7324" fill="#FFFF00"/>
<path d="M16.9289 9.98005L16.9694 10.3441H16.7267C16.7267 10.0436 16.4956 9.99738 16.4956 9.99738C16.4898 9.99738 16.2645 10.0609 16.2587 10.3441H16.016L16.0622 9.97427H16.9289V9.98005ZM16.9867 10.3498H16.0045C15.9871 10.3498 15.9698 10.3672 15.9698 10.3903C15.9698 10.4192 15.9871 10.4365 16.0045 10.4365H16.9867C17.004 10.4365 17.0214 10.4192 17.0214 10.3903C17.0214 10.3672 17.004 10.3498 16.9809 10.3498H16.9867Z" fill="#FFFF00" stroke="black" stroke-width="0.0666669"/>
<path d="M16.6285 10.344C16.6285 10.1534 16.4956 10.1014 16.4956 10.1014C16.4956 10.1014 16.3627 10.1591 16.3627 10.344H16.6285ZM16.9636 9.82404H16.0218C16.0045 9.82404 15.9872 9.84715 15.9872 9.87026C15.9872 9.88759 16.0045 9.90493 16.0218 9.90493H16.9636C16.981 9.90493 16.9983 9.88759 16.9983 9.86448C16.9983 9.84715 16.981 9.82982 16.9636 9.82982V9.82404ZM16.9405 9.9107H16.0507C16.0334 9.9107 16.0161 9.92804 16.0161 9.95115C16.0161 9.97426 16.0334 9.99159 16.0507 9.99159H16.9463C16.9694 9.99159 16.981 9.97426 16.981 9.95115C16.981 9.92804 16.9694 9.9107 16.9463 9.9107H16.9405ZM16.6516 9.29826H16.5823V9.34448H16.5303V9.29826H16.4552V9.35026H16.4032V9.29248H16.3338V9.40804C16.3338 9.43115 16.3454 9.4427 16.3627 9.4427H16.617C16.6343 9.4427 16.6516 9.43115 16.6516 9.41381V9.29826ZM16.3858 9.45426L16.3685 9.82404H16.617L16.5996 9.44848H16.3858" fill="#FFFF00"/>
<path d="M16.3858 9.45426L16.3685 9.82404H16.617L16.5996 9.44848H16.3858M16.6285 10.344C16.6285 10.1534 16.4956 10.1014 16.4956 10.1014C16.4956 10.1014 16.3627 10.1591 16.3627 10.344H16.6285ZM16.9636 9.82404H16.0218C16.0045 9.82404 15.9872 9.84715 15.9872 9.87026C15.9872 9.88759 16.0045 9.90493 16.0218 9.90493H16.9636C16.981 9.90493 16.9983 9.88759 16.9983 9.86448C16.9983 9.84715 16.981 9.82982 16.9636 9.82982V9.82404ZM16.9405 9.9107H16.0507C16.0334 9.9107 16.0161 9.92804 16.0161 9.95115C16.0161 9.97426 16.0334 9.99159 16.0507 9.99159H16.9463C16.9694 9.99159 16.981 9.97426 16.981 9.95115C16.981 9.92804 16.9694 9.9107 16.9463 9.9107H16.9405ZM16.6516 9.29826H16.5823V9.34448H16.5303V9.29826H16.4552V9.35026H16.4032V9.29248H16.3338V9.40804C16.3338 9.43115 16.3454 9.4427 16.3627 9.4427H16.617C16.6343 9.4427 16.6516 9.43115 16.6516 9.41381V9.29826Z" stroke="black" stroke-width="0.0666669"/>
<path d="M16.6862 9.62759V9.82404H16.9174V9.62759H16.6862Z" fill="#FFFF00" stroke="black" stroke-width="0.0666669"/>
<path d="M16.6862 9.62759V9.82404H16.9174V9.62759H16.6862Z" fill="#FFFF00" stroke="black" stroke-width="0.0666669"/>
<path d="M16.9578 9.47736H16.8884V9.53513H16.8364V9.47736H16.7671V9.53513H16.7151V9.47736H16.6458V9.59291C16.6458 9.61602 16.6573 9.62758 16.6747 9.62758H16.9231C16.9323 9.62758 16.9411 9.62393 16.9476 9.61743C16.9541 9.61092 16.9578 9.60211 16.9578 9.59291V9.47736Z" fill="#FFFF00" stroke="black" stroke-width="0.0666669"/>
<path d="M16.9578 9.47736H16.8884V9.53513H16.8364V9.47736H16.7671V9.53513H16.7151V9.47736H16.6458V9.59291C16.6458 9.61602 16.6573 9.62758 16.6747 9.62758H16.9231C16.9323 9.62758 16.9411 9.62393 16.9476 9.61743C16.9541 9.61092 16.9578 9.60211 16.9578 9.59291V9.47736Z" fill="#FFFF00" stroke="black" stroke-width="0.0666669"/>
<path d="M16.5187 9.56982C16.5187 9.53516 16.4667 9.53516 16.4667 9.56982V9.66227H16.5187V9.56982Z" fill="black"/>
<path d="M16.825 9.69693C16.825 9.66226 16.7787 9.66226 16.7787 9.69693V9.76626H16.825V9.69693Z" fill="black"/>
<path d="M16.825 9.69693C16.825 9.66226 16.7787 9.66226 16.7787 9.69693V9.76626H16.825V9.69693Z" fill="black"/>
<path d="M16.7324 10.3672C16.7266 10.0494 16.5013 9.97427 16.5013 9.97427C16.4955 9.97427 16.2529 10.0552 16.2529 10.3729H16.7324" fill="#FFFF00"/>
<path d="M16.9289 9.98005L16.9694 10.3441H16.7267C16.7267 10.0436 16.4956 9.99738 16.4956 9.99738C16.4898 9.99738 16.2645 10.0609 16.2587 10.3441H16.016L16.0622 9.97427H16.9289V9.98005ZM16.9867 10.3498H16.0045C15.9871 10.3498 15.9698 10.3672 15.9698 10.3903C15.9698 10.4192 15.9871 10.4365 16.0045 10.4365H16.9867C17.004 10.4365 17.0214 10.4192 17.0214 10.3903C17.0214 10.3672 17.004 10.3498 16.9809 10.3498H16.9867Z" fill="#FFFF00" stroke="black" stroke-width="0.0666669"/>
<path d="M16.6285 10.344C16.6285 10.1534 16.4956 10.1014 16.4956 10.1014C16.4956 10.1014 16.3627 10.1591 16.3627 10.344H16.6285ZM16.9636 9.82404H16.0218C16.0045 9.82404 15.9872 9.84715 15.9872 9.87026C15.9872 9.88759 16.0045 9.90493 16.0218 9.90493H16.9636C16.981 9.90493 16.9983 9.88759 16.9983 9.86448C16.9983 9.84715 16.981 9.82982 16.9636 9.82982V9.82404ZM16.9405 9.9107H16.0507C16.0334 9.9107 16.0161 9.92804 16.0161 9.95115C16.0161 9.97426 16.0334 9.99159 16.0507 9.99159H16.9463C16.9694 9.99159 16.981 9.97426 16.981 9.95115C16.981 9.92804 16.9694 9.9107 16.9463 9.9107H16.9405ZM16.6516 9.29826H16.5823V9.34448H16.5303V9.29826H16.4552V9.35026H16.4032V9.29248H16.3338V9.40804C16.3338 9.43115 16.3454 9.4427 16.3627 9.4427H16.617C16.6343 9.4427 16.6516 9.43115 16.6516 9.41381V9.29826ZM16.3858 9.45426L16.3685 9.82404H16.617L16.5996 9.44848H16.3858" fill="#FFFF00"/>
<path d="M16.3858 9.45426L16.3685 9.82404H16.617L16.5996 9.44848H16.3858M16.6285 10.344C16.6285 10.1534 16.4956 10.1014 16.4956 10.1014C16.4956 10.1014 16.3627 10.1591 16.3627 10.344H16.6285ZM16.9636 9.82404H16.0218C16.0045 9.82404 15.9872 9.84715 15.9872 9.87026C15.9872 9.88759 16.0045 9.90493 16.0218 9.90493H16.9636C16.981 9.90493 16.9983 9.88759 16.9983 9.86448C16.9983 9.84715 16.981 9.82982 16.9636 9.82982V9.82404ZM16.9405 9.9107H16.0507C16.0334 9.9107 16.0161 9.92804 16.0161 9.95115C16.0161 9.97426 16.0334 9.99159 16.0507 9.99159H16.9463C16.9694 9.99159 16.981 9.97426 16.981 9.95115C16.981 9.92804 16.9694 9.9107 16.9463 9.9107H16.9405ZM16.6516 9.29826H16.5823V9.34448H16.5303V9.29826H16.4552V9.35026H16.4032V9.29248H16.3338V9.40804C16.3338 9.43115 16.3454 9.4427 16.3627 9.4427H16.617C16.6343 9.4427 16.6516 9.43115 16.6516 9.41381V9.29826Z" stroke="black" stroke-width="0.0666669"/>
<path d="M16.6862 9.62759V9.82404H16.9174V9.62759H16.6862Z" fill="#FFFF00" stroke="black" stroke-width="0.0666669"/>
<path d="M16.6862 9.62759V9.82404H16.9174V9.62759H16.6862Z" fill="#FFFF00" stroke="black" stroke-width="0.0666669"/>
<path d="M16.9578 9.47736H16.8884V9.53513H16.8364V9.47736H16.7671V9.53513H16.7151V9.47736H16.6458V9.59291C16.6458 9.61602 16.6573 9.62758 16.6747 9.62758H16.9231C16.9323 9.62758 16.9411 9.62393 16.9476 9.61743C16.9541 9.61092 16.9578 9.60211 16.9578 9.59291V9.47736Z" fill="#FFFF00" stroke="black" stroke-width="0.0666669"/>
<path d="M16.9578 9.47736H16.8884V9.53513H16.8364V9.47736H16.7671V9.53513H16.7151V9.47736H16.6458V9.59291C16.6458 9.61602 16.6573 9.62758 16.6747 9.62758H16.9231C16.9323 9.62758 16.9411 9.62393 16.9476 9.61743C16.9541 9.61092 16.9578 9.60211 16.9578 9.59291V9.47736Z" fill="#FFFF00" stroke="black" stroke-width="0.0666669"/>
<path d="M16.5187 9.56982C16.5187 9.53516 16.4667 9.53516 16.4667 9.56982V9.66227H16.5187V9.56982Z" fill="black"/>
<path d="M16.825 9.69693C16.825 9.66226 16.7787 9.66226 16.7787 9.69693V9.76626H16.825V9.69693Z" fill="black"/>
<path d="M16.825 9.69693C16.825 9.66226 16.7787 9.66226 16.7787 9.69693V9.76626H16.825V9.69693Z" fill="black"/>
<path d="M15.6897 15.8303C15.9111 15.6023 15.8057 15.3895 15.8057 15.3895C15.8016 15.3854 15.5732 15.2702 15.3477 15.4941L15.6856 15.8344" fill="#FFFF00"/>
<path d="M16.1029 15.697L15.8731 15.9821L15.7021 15.81C15.9153 15.5983 15.7852 15.4017 15.7852 15.4017C15.7812 15.3976 15.5773 15.2825 15.3723 15.4779L15.2013 15.3057L15.4963 15.0779L16.107 15.6929L16.1029 15.697ZM15.8812 15.9985L15.1891 15.3016C15.1769 15.2893 15.1524 15.2892 15.136 15.3055C15.1155 15.3258 15.1154 15.3503 15.1276 15.3626L15.8197 16.0596C15.8319 16.0719 15.8564 16.072 15.8769 16.0516C15.8933 16.0353 15.8934 16.0108 15.8771 15.9944L15.8812 15.9985Z" fill="#FFFF00" stroke="black" stroke-width="0.0666669"/>
<path d="M15.6329 15.7403C15.7682 15.6059 15.7115 15.475 15.7115 15.475C15.7115 15.475 15.5768 15.4214 15.4457 15.5517L15.6329 15.7403ZM16.238 15.6116L15.5744 14.9434C15.5622 14.9311 15.5336 14.9351 15.5172 14.9514C15.5049 14.9636 15.5048 14.9881 15.517 15.0004L16.1806 15.6686C16.1929 15.6809 16.2174 15.681 16.2338 15.6647C16.2461 15.6525 16.2462 15.628 16.2339 15.6157L16.238 15.6116ZM16.1603 15.6563L15.5333 15.025C15.5211 15.0127 15.4966 15.0126 15.4802 15.0289C15.4638 15.0451 15.4637 15.0696 15.4759 15.0819L16.1069 15.7174C16.1232 15.7338 16.1437 15.7298 16.1601 15.7135C16.1765 15.6972 16.1806 15.6768 16.1643 15.6604L16.1603 15.6563ZM16.3913 15.0198L16.3424 14.9706L16.3096 15.0031L16.273 14.9662L16.3058 14.9337L16.2529 14.8804L16.216 14.917L16.1793 14.8801L16.2203 14.8394L16.1715 14.7902L16.0895 14.8716C16.0731 14.8879 16.073 14.9043 16.0852 14.9166L16.2644 15.097C16.2766 15.1093 16.297 15.1134 16.3093 15.1012L16.3913 15.0198ZM16.0933 14.9411L15.8187 15.1894L15.9938 15.3657L16.248 15.0887L16.0974 14.937" fill="#FFFF00"/>
<path d="M16.0933 14.9411L15.8187 15.1894L15.9938 15.3657L16.248 15.0887L16.0974 14.937M15.6329 15.7403C15.7682 15.6059 15.7115 15.475 15.7115 15.475C15.7115 15.475 15.5768 15.4214 15.4457 15.5517L15.6329 15.7403ZM16.238 15.6116L15.5744 14.9434C15.5622 14.9311 15.5336 14.9351 15.5172 14.9514C15.5049 14.9636 15.5048 14.9881 15.517 15.0004L16.1806 15.6686C16.1929 15.6809 16.2174 15.681 16.2338 15.6647C16.2461 15.6525 16.2462 15.628 16.2339 15.6157L16.238 15.6116ZM16.1603 15.6563L15.5333 15.025C15.5211 15.0127 15.4966 15.0126 15.4802 15.0289C15.4638 15.0451 15.4637 15.0696 15.4759 15.0819L16.1069 15.7174C16.1232 15.7338 16.1437 15.7298 16.1601 15.7135C16.1765 15.6972 16.1806 15.6768 16.1643 15.6604L16.1603 15.6563ZM16.3913 15.0198L16.3424 14.9706L16.3096 15.0031L16.273 14.9662L16.3058 14.9337L16.2529 14.8804L16.216 14.917L16.1793 14.8801L16.2203 14.8394L16.1715 14.7902L16.0895 14.8716C16.0731 14.8879 16.073 14.9043 16.0852 14.9166L16.2644 15.097C16.2766 15.1093 16.297 15.1134 16.3093 15.1012L16.3913 15.0198Z" stroke="black" stroke-width="0.0666669"/>
<path d="M16.182 15.2764L16.0426 15.4148L16.2055 15.5788L16.3448 15.4404L16.182 15.2764Z" fill="#FFFF00" stroke="black" stroke-width="0.0666669"/>
<path d="M16.182 15.2764L16.0426 15.4148L16.2055 15.5788L16.3448 15.4404L16.182 15.2764Z" fill="#FFFF00" stroke="black" stroke-width="0.0666669"/>
<path d="M16.4799 15.3633L16.431 15.3141L16.39 15.3548L16.3534 15.3179L16.3944 15.2772L16.3455 15.228L16.3045 15.2687L16.2679 15.2318L16.3089 15.1911L16.26 15.1419L16.178 15.2233C16.1616 15.2396 16.1616 15.2559 16.1738 15.2682L16.3488 15.4445C16.3553 15.451 16.3641 15.4547 16.3733 15.4547C16.3825 15.4548 16.3913 15.4512 16.3979 15.4447L16.4799 15.3633Z" fill="#FFFF00" stroke="black" stroke-width="0.0666669"/>
<path d="M16.4799 15.3633L16.431 15.3141L16.39 15.3548L16.3534 15.3179L16.3944 15.2772L16.3455 15.228L16.3045 15.2687L16.2679 15.2318L16.3089 15.1911L16.26 15.1419L16.178 15.2233C16.1616 15.2396 16.1616 15.2559 16.1738 15.2682L16.3488 15.4445C16.3553 15.451 16.3641 15.4547 16.3733 15.4547C16.3825 15.4548 16.3913 15.4512 16.3979 15.4447L16.4799 15.3633Z" fill="#FFFF00" stroke="black" stroke-width="0.0666669"/>
<path d="M16.1048 15.1168C16.1294 15.0924 16.0928 15.0555 16.0682 15.0799L16.0026 15.1451L16.0392 15.182L16.1048 15.1168Z" fill="black"/>
<path d="M16.2305 15.4237C16.2551 15.3993 16.2225 15.3665 16.1979 15.3909L16.1487 15.4397L16.1813 15.4725L16.2305 15.4237Z" fill="black"/>
<path d="M16.2305 15.4237C16.2551 15.3993 16.2225 15.3665 16.1979 15.3909L16.1487 15.4397L16.1813 15.4725L16.2305 15.4237Z" fill="black"/>
<path d="M13.4391 13.1405C13.4381 13.2625 13.4835 13.3802 13.5662 13.4698C13.6048 13.513 13.652 13.5476 13.7047 13.5715C13.7574 13.5954 13.8146 13.608 13.8724 13.6085C13.9938 13.6085 14.1036 13.5507 14.1787 13.4698C14.2614 13.3802 14.3068 13.2625 14.3058 13.1405V12.5165H13.4391V13.1405Z" fill="#003399"/>
<path d="M13.6414 12.8401C13.6892 12.8401 13.728 12.8012 13.728 12.7534C13.728 12.7055 13.6892 12.6667 13.6414 12.6667C13.5935 12.6667 13.5547 12.7055 13.5547 12.7534C13.5547 12.8012 13.5935 12.8401 13.6414 12.8401Z" fill="white"/>
<path d="M14.1208 12.8401C14.1687 12.8401 14.2075 12.8012 14.2075 12.7534C14.2075 12.7055 14.1687 12.6667 14.1208 12.6667C14.073 12.6667 14.0342 12.7055 14.0342 12.7534C14.0342 12.8012 14.073 12.8401 14.1208 12.8401Z" fill="white"/>
<path d="M13.8782 13.0712C13.926 13.0712 13.9648 13.0324 13.9648 12.9845C13.9648 12.9367 13.926 12.8979 13.8782 12.8979C13.8303 12.8979 13.7915 12.9367 13.7915 12.9845C13.7915 13.0324 13.8303 13.0712 13.8782 13.0712Z" fill="white"/>
<path d="M13.6414 13.3138C13.6892 13.3138 13.728 13.275 13.728 13.2272C13.728 13.1793 13.6892 13.1405 13.6414 13.1405C13.5935 13.1405 13.5547 13.1793 13.5547 13.2272C13.5547 13.275 13.5935 13.3138 13.6414 13.3138Z" fill="white"/>
<path d="M14.1208 13.3138C14.1687 13.3138 14.2075 13.275 14.2075 13.2272C14.2075 13.1793 14.1687 13.1405 14.1208 13.1405C14.073 13.1405 14.0342 13.1793 14.0342 13.2272C14.0342 13.275 14.073 13.3138 14.1208 13.3138Z" fill="white"/>
<path d="M13.4391 13.1405C13.4381 13.2625 13.4835 13.3802 13.5662 13.4698C13.6048 13.513 13.652 13.5476 13.7047 13.5715C13.7574 13.5954 13.8146 13.608 13.8724 13.6085C13.9938 13.6085 14.1036 13.5507 14.1787 13.4698C14.2614 13.3802 14.3068 13.2625 14.3058 13.1405V12.5165H13.4391V13.1405Z" fill="#003399"/>
<path d="M13.6414 12.8401C13.6892 12.8401 13.728 12.8012 13.728 12.7534C13.728 12.7055 13.6892 12.6667 13.6414 12.6667C13.5935 12.6667 13.5547 12.7055 13.5547 12.7534C13.5547 12.8012 13.5935 12.8401 13.6414 12.8401Z" fill="white"/>
<path d="M14.1208 12.8401C14.1687 12.8401 14.2075 12.8012 14.2075 12.7534C14.2075 12.7055 14.1687 12.6667 14.1208 12.6667C14.073 12.6667 14.0342 12.7055 14.0342 12.7534C14.0342 12.8012 14.073 12.8401 14.1208 12.8401Z" fill="white"/>
<path d="M13.8782 13.0712C13.926 13.0712 13.9648 13.0324 13.9648 12.9845C13.9648 12.9367 13.926 12.8979 13.8782 12.8979C13.8303 12.8979 13.7915 12.9367 13.7915 12.9845C13.7915 13.0324 13.8303 13.0712 13.8782 13.0712Z" fill="white"/>
<path d="M13.6414 13.3138C13.6892 13.3138 13.728 13.275 13.728 13.2272C13.728 13.1793 13.6892 13.1405 13.6414 13.1405C13.5935 13.1405 13.5547 13.1793 13.5547 13.2272C13.5547 13.275 13.5935 13.3138 13.6414 13.3138Z" fill="white"/>
<path d="M14.1208 13.3138C14.1687 13.3138 14.2075 13.275 14.2075 13.2272C14.2075 13.1793 14.1687 13.1405 14.1208 13.1405C14.073 13.1405 14.0342 13.1793 14.0342 13.2272C14.0342 13.275 14.073 13.3138 14.1208 13.3138Z" fill="white"/>
<path d="M13.4391 13.1405C13.4381 13.2625 13.4835 13.3802 13.5662 13.4698C13.6048 13.513 13.652 13.5476 13.7047 13.5715C13.7574 13.5954 13.8146 13.608 13.8724 13.6085C13.9938 13.6085 14.1036 13.5507 14.1787 13.4698C14.2614 13.3802 14.3068 13.2625 14.3058 13.1405V12.5165H13.4391V13.1405Z" fill="#003399"/>
<path d="M13.6414 12.8401C13.6892 12.8401 13.728 12.8012 13.728 12.7534C13.728 12.7055 13.6892 12.6667 13.6414 12.6667C13.5935 12.6667 13.5547 12.7055 13.5547 12.7534C13.5547 12.8012 13.5935 12.8401 13.6414 12.8401Z" fill="white"/>
<path d="M14.1208 12.8401C14.1687 12.8401 14.2075 12.8012 14.2075 12.7534C14.2075 12.7055 14.1687 12.6667 14.1208 12.6667C14.073 12.6667 14.0342 12.7055 14.0342 12.7534C14.0342 12.8012 14.073 12.8401 14.1208 12.8401Z" fill="white"/>
<path d="M13.8782 13.0712C13.926 13.0712 13.9648 13.0324 13.9648 12.9845C13.9648 12.9367 13.926 12.8979 13.8782 12.8979C13.8303 12.8979 13.7915 12.9367 13.7915 12.9845C13.7915 13.0324 13.8303 13.0712 13.8782 13.0712Z" fill="white"/>
<path d="M13.6414 13.3138C13.6892 13.3138 13.728 13.275 13.728 13.2272C13.728 13.1793 13.6892 13.1405 13.6414 13.1405C13.5935 13.1405 13.5547 13.1793 13.5547 13.2272C13.5547 13.275 13.5935 13.3138 13.6414 13.3138Z" fill="white"/>
<path d="M14.1208 13.3138C14.1687 13.3138 14.2075 13.275 14.2075 13.2272C14.2075 13.1793 14.1687 13.1405 14.1208 13.1405C14.073 13.1405 14.0342 13.1793 14.0342 13.2272C14.0342 13.275 14.073 13.3138 14.1208 13.3138Z" fill="white"/>
<path d="M13.4391 13.1405C13.4381 13.2625 13.4835 13.3802 13.5662 13.4698C13.6048 13.513 13.652 13.5476 13.7047 13.5715C13.7574 13.5954 13.8146 13.608 13.8724 13.6085C13.9938 13.6085 14.1036 13.5507 14.1787 13.4698C14.2614 13.3802 14.3068 13.2625 14.3058 13.1405V12.5165H13.4391V13.1405Z" fill="#003399"/>
<path d="M13.6414 12.8401C13.6892 12.8401 13.728 12.8012 13.728 12.7534C13.728 12.7055 13.6892 12.6667 13.6414 12.6667C13.5935 12.6667 13.5547 12.7055 13.5547 12.7534C13.5547 12.8012 13.5935 12.8401 13.6414 12.8401Z" fill="white"/>
<path d="M14.1208 12.8401C14.1687 12.8401 14.2075 12.8012 14.2075 12.7534C14.2075 12.7055 14.1687 12.6667 14.1208 12.6667C14.073 12.6667 14.0342 12.7055 14.0342 12.7534C14.0342 12.8012 14.073 12.8401 14.1208 12.8401Z" fill="white"/>
<path d="M13.8782 13.0712C13.926 13.0712 13.9648 13.0324 13.9648 12.9845C13.9648 12.9367 13.926 12.8979 13.8782 12.8979C13.8303 12.8979 13.7915 12.9367 13.7915 12.9845C13.7915 13.0324 13.8303 13.0712 13.8782 13.0712Z" fill="white"/>
<path d="M13.6414 13.3138C13.6892 13.3138 13.728 13.275 13.728 13.2272C13.728 13.1793 13.6892 13.1405 13.6414 13.1405C13.5935 13.1405 13.5547 13.1793 13.5547 13.2272C13.5547 13.275 13.5935 13.3138 13.6414 13.3138Z" fill="white"/>
<path d="M14.1208 13.3138C14.1687 13.3138 14.2075 13.275 14.2075 13.2272C14.2075 13.1793 14.1687 13.1405 14.1208 13.1405C14.073 13.1405 14.0342 13.1793 14.0342 13.2272C14.0342 13.275 14.073 13.3138 14.1208 13.3138Z" fill="white"/>
<path d="M13.4391 13.1405C13.4381 13.2625 13.4835 13.3802 13.5662 13.4698C13.6048 13.513 13.652 13.5476 13.7047 13.5715C13.7574 13.5954 13.8146 13.608 13.8724 13.6085C13.9938 13.6085 14.1036 13.5507 14.1787 13.4698C14.2614 13.3802 14.3068 13.2625 14.3058 13.1405V12.5165H13.4391V13.1405Z" fill="#003399"/>
<path d="M13.6414 12.8401C13.6892 12.8401 13.728 12.8012 13.728 12.7534C13.728 12.7055 13.6892 12.6667 13.6414 12.6667C13.5935 12.6667 13.5547 12.7055 13.5547 12.7534C13.5547 12.8012 13.5935 12.8401 13.6414 12.8401Z" fill="white"/>
<path d="M14.1208 12.8401C14.1687 12.8401 14.2075 12.8012 14.2075 12.7534C14.2075 12.7055 14.1687 12.6667 14.1208 12.6667C14.073 12.6667 14.0342 12.7055 14.0342 12.7534C14.0342 12.8012 14.073 12.8401 14.1208 12.8401Z" fill="white"/>
<path d="M13.8782 13.0712C13.926 13.0712 13.9648 13.0324 13.9648 12.9845C13.9648 12.9367 13.926 12.8979 13.8782 12.8979C13.8303 12.8979 13.7915 12.9367 13.7915 12.9845C13.7915 13.0324 13.8303 13.0712 13.8782 13.0712Z" fill="white"/>
<path d="M13.6414 13.3138C13.6892 13.3138 13.728 13.275 13.728 13.2272C13.728 13.1793 13.6892 13.1405 13.6414 13.1405C13.5935 13.1405 13.5547 13.1793 13.5547 13.2272C13.5547 13.275 13.5935 13.3138 13.6414 13.3138Z" fill="white"/>
<path d="M14.1208 13.3138C14.1687 13.3138 14.2075 13.275 14.2075 13.2272C14.2075 13.1793 14.1687 13.1405 14.1208 13.1405C14.073 13.1405 14.0342 13.1793 14.0342 13.2272C14.0342 13.275 14.073 13.3138 14.1208 13.3138Z" fill="white"/>
</g>
<defs>
<clipPath id="clip0_1_1843">
<rect width="34.6667" height="26" fill="white"/>
</clipPath>
</defs>
</svg>
