<svg width="81" height="61" viewBox="0 0 81 61" fill="none" xmlns="http://www.w3.org/2000/svg">
<g clip-path="url(#clip0_1561_10990)">
<path fill-rule="evenodd" clip-rule="evenodd" d="M0.140381 0.774414H80.1404V60.7744H0.140381V0.774414Z" fill="#E30A17"/>
<path fill-rule="evenodd" clip-rule="evenodd" d="M51.0154 31.7121C51.0154 39.9871 44.1904 46.6996 35.7654 46.6996C27.3404 46.6996 20.5154 39.9871 20.5154 31.6996C20.5154 23.4121 27.3404 16.7246 35.7654 16.7246C44.1904 16.7246 51.0154 23.4371 51.0154 31.7121Z" fill="white"/>
<path fill-rule="evenodd" clip-rule="evenodd" d="M51.7654 31.7121C51.7654 38.3371 46.3154 43.6996 39.5779 43.6996C32.8404 43.6996 27.3779 38.3246 27.3779 31.6996C27.3779 25.0746 32.8404 19.7246 39.5779 19.7246C46.3154 19.7246 51.7779 25.0871 51.7779 31.7121H51.7654Z" fill="#E30A17"/>
<path fill-rule="evenodd" clip-rule="evenodd" d="M53.9779 24.7117L53.8529 30.2492L48.6904 31.6492L53.7904 33.4617L53.6654 38.5492L56.9779 34.5742L62.0029 36.3242L59.1029 32.0617L62.6404 27.8242L57.2029 29.3242L53.9779 24.6992V24.7117Z" fill="white"/>
</g>
<defs>
<clipPath id="clip0_1561_10990">
<rect width="80" height="60" fill="white" transform="translate(0.140381 0.774414)"/>
</clipPath>
</defs>
</svg>
