<svg width="32" height="32" viewBox="0 0 32 32" fill="none" xmlns="http://www.w3.org/2000/svg">
<path d="M16 27.95C9.40005 27.95 4.05005 22.6 4.05005 16C4.05005 9.40005 9.40005 4.05005 16 4.05005C22.6 4.05005 27.95 9.40005 27.95 16C27.95 22.6 22.6 27.95 16 27.95ZM16 5.35005C10.15 5.35005 5.35005 10.15 5.35005 16C5.35005 21.85 10.15 26.65 16 26.65C21.85 26.65 26.65 21.85 26.65 16C26.65 10.15 21.85 5.35005 16 5.35005Z" fill="white"/>
<path d="M16.25 22.85L9.40002 16L16.25 9.15002L17.15 10.1L11.3 16L17.15 21.9L16.25 22.85Z" fill="white"/>
<path d="M10.3501 15.3H22.3501V16.7H10.3501V15.3Z" fill="white"/>
</svg>
