<svg width="12" height="18" viewBox="0 0 12 18" fill="none" xmlns="http://www.w3.org/2000/svg">
<path d="M0.539091 10.1531L9.53946 17.6534C9.84543 17.9065 10.2392 18.028 10.6346 17.9914C11.03 17.9547 11.3947 17.7629 11.649 17.4579C11.9032 17.1529 12.0262 16.7596 11.9911 16.364C11.9559 15.9685 11.7655 15.6031 11.4614 15.3477L3.84391 9.00017L11.4614 2.65267C11.7666 2.39764 11.9581 2.03188 11.9939 1.63574C12.0296 1.23961 11.9066 0.845488 11.6519 0.539961C11.3973 0.234434 11.0318 0.0424899 10.6357 0.00629032C10.2396 -0.0299093 9.8453 0.0925978 9.53947 0.346899L0.539091 7.84735C0.370328 7.98834 0.234576 8.16467 0.141424 8.36388C0.048272 8.56308 -7.77725e-06 8.78031 -7.79648e-06 9.00022C-7.8157e-06 9.22013 0.0482719 9.43736 0.141424 9.63657C0.234576 9.83578 0.370328 10.0121 0.539091 10.1531Z" fill="black"/>
</svg>
