<svg width="28" height="28" viewBox="0 0 28 28" fill="none" xmlns="http://www.w3.org/2000/svg">
<path fill-rule="evenodd" clip-rule="evenodd" d="M21.2196 13.97C18.2016 13.6756 15.6745 11.7046 14.5827 9.00002H8.23982V8.73002C8.17224 7.98206 7.82657 7.28665 7.27112 6.78118C6.71567 6.27572 5.99083 5.99698 5.23982 6.00002H3.06982C2.80461 6.00002 2.55025 6.10538 2.36272 6.29292C2.17518 6.48045 2.06982 6.73481 2.06982 7.00002C2.06982 7.26524 2.17518 7.5196 2.36272 7.70713C2.55025 7.89467 2.80461 8.00002 3.06982 8.00002H5.23982C5.49016 7.99901 5.73177 8.09192 5.91692 8.26041C6.10207 8.4289 6.2173 8.6607 6.23982 8.91002L6.88982 16.27C6.95741 17.018 7.30308 17.7134 7.85853 18.2189C8.41398 18.7243 9.13882 19.0031 9.88982 19H17.5398C18.2036 19.0051 18.8503 18.79 19.3786 18.3883C19.907 17.9866 20.2873 17.421 20.4598 16.78L21.2196 13.97Z" fill="white"/>
<path d="M9.06982 26C10.4505 26 11.5698 24.8807 11.5698 23.5C11.5698 22.1193 10.4505 21 9.06982 21C7.68911 21 6.56982 22.1193 6.56982 23.5C6.56982 24.8807 7.68911 26 9.06982 26Z" fill="white"/>
<path d="M17.0698 26C18.4505 26 19.5698 24.8807 19.5698 23.5C19.5698 22.1193 18.4505 21 17.0698 21C15.6891 21 14.5698 22.1193 14.5698 23.5C14.5698 24.8807 15.6891 26 17.0698 26Z" fill="white"/>
</svg>
