<svg width="20" height="20" viewBox="0 0 20 20" fill="none" xmlns="http://www.w3.org/2000/svg">
<path fill-rule="evenodd" clip-rule="evenodd" d="M7 4.17334H12.4619C13.4113 6.37381 15.3198 8.06328 17.6605 8.71533L17.0904 10.8421L17.0812 10.8396V10.8421H8.79542V10.84L8.78667 10.8421L7 4.17334Z" fill="#241F20"/>
<path d="M7.76917 12.5L4.67083 1.12793H0V2.81251H3.4025L6.49583 14.1667L6.50583 14.1638V14.1667H20V12.5H7.76917Z" fill="#241F20"/>
<path d="M17.4046 18.3333C18.3251 18.3333 19.0712 17.5871 19.0712 16.6667C19.0712 15.7462 18.3251 15 17.4046 15C16.4841 15 15.7379 15.7462 15.7379 16.6667C15.7379 17.5871 16.4841 18.3333 17.4046 18.3333Z" fill="#241F20"/>
<path d="M8.17253 18.3333C9.093 18.3333 9.83919 17.5871 9.83919 16.6667C9.83919 15.7462 9.093 15 8.17253 15C7.25205 15 6.50586 15.7462 6.50586 16.6667C6.50586 17.5871 7.25205 18.3333 8.17253 18.3333Z" fill="#241F20"/>
</svg>
