<svg width="24" height="24" viewBox="0 0 24 24" fill="none" xmlns="http://www.w3.org/2000/svg">
<path fill-rule="evenodd" clip-rule="evenodd" d="M20.8273 11.2726C18.2357 11.0007 16.0651 9.31458 15.1013 7H10.4869C10.1266 7 9.92143 7.27862 10.0283 7.62287L11.7792 12.7517C11.8654 13.0285 12.1707 13.2528 12.4606 13.2528H19.7168C20.0067 13.2528 20.3116 13.0285 20.3974 12.7517L20.8273 11.2726Z" fill="white"/>
<path d="M10.9215 20.5058C11.8359 20.5058 12.5771 19.7646 12.5771 18.8502C12.5771 17.9358 11.8359 17.1946 10.9215 17.1946C10.0071 17.1946 9.2659 17.9358 9.2659 18.8502C9.2659 19.7646 10.0071 20.5058 10.9215 20.5058Z" fill="white"/>
<path d="M17.9273 20.5268C18.8416 20.5268 19.5829 19.7856 19.5829 18.8712C19.5829 17.9568 18.8416 17.2156 17.9273 17.2156C17.0129 17.2156 16.2716 17.9568 16.2716 18.8712C16.2716 19.7856 17.0129 20.5268 17.9273 20.5268Z" fill="white"/>
<path d="M19.9151 14.6265H10.2323L6.3559 3.4729H3.33752C2.81965 3.4729 2.40002 3.89253 2.40002 4.4104C2.40002 4.92828 2.81965 5.3479 3.33752 5.3479H5.0224L8.89878 16.5015H19.9151C20.433 16.5015 20.8526 16.0819 20.8526 15.564C20.8526 15.0462 20.433 14.6265 19.9151 14.6265Z" fill="white"/>
</svg>
