<svg width="16" height="16" viewBox="0 0 16 16" fill="none" xmlns="http://www.w3.org/2000/svg">
    <path fill-rule="evenodd" clip-rule="evenodd" d="M7.88848 2.66663H1.33325V3.99996H2.86658L5.21392 10.4553C5.3077 10.7123 5.47813 10.9343 5.70215 11.0913C5.92618 11.2483 6.19301 11.3328 6.46658 11.3333H11.9999V9.99996H6.46658L5.98125 8.66663H11.9999C12.2666 8.66663 12.5079 8.50796 12.6126 8.26263L13.2375 6.80458C10.9053 6.27979 8.95837 4.73669 7.88848 2.66663Z" fill="white"/>
    <path d="M7 14C7.55228 14 8 13.5523 8 13C8 12.4477 7.55228 12 7 12C6.44772 12 6 12.4477 6 13C6 13.5523 6.44772 14 7 14Z" fill="white"/>
    <path d="M11 14C11.5523 14 12 13.5523 12 13C12 12.4477 11.5523 12 11 12C10.4477 12 10 12.4477 10 13C10 13.5523 10.4477 14 11 14Z" fill="white"/>
</svg>