<svg width="30" height="26" viewBox="0 0 30 26" fill="none" xmlns="http://www.w3.org/2000/svg">
    <path d="M29.2462 19.4969H28.1641C28.385 18.5124 28.4965 17.5063 28.4963 16.4972C28.4905 13.0507 27.167 9.73665 24.7969 7.23437C22.4267 4.73209 19.1896 3.2304 15.7481 3.03783V1.4997H17.9978C18.4118 1.4997 18.7475 1.164 18.7475 0.74972C18.7475 0.33569 18.4118 0 17.9978 0H11.9986C11.5845 0 11.2489 0.335696 11.2489 0.74972C11.2489 1.164 11.5845 1.4997 11.9986 1.4997H14.2482V3.03783C10.807 3.23041 7.56997 4.73184 5.19949 7.23437C2.829 9.73691 1.50589 13.0509 1.5001 16.4972C1.49985 17.5063 1.61133 18.5124 1.83228 19.4969H0.750136C0.49027 19.4969 0.248734 19.6312 0.112149 19.8524C-0.0246877 20.0734 -0.0369899 20.3496 0.0790071 20.5821L2.32865 25.0814C2.4557 25.3355 2.71556 25.4962 2.99976 25.496H26.9964C27.2819 25.4977 27.5435 25.3368 27.6713 25.0814L29.921 20.5821C30.0375 20.3488 30.0244 20.0721 29.8868 19.8507C29.7492 19.6295 29.5067 19.4954 29.2461 19.4969L29.2462 19.4969ZM14.9982 4.49928C18.1791 4.50305 21.2287 5.76823 23.4781 8.01764C25.7273 10.2668 26.9927 13.3165 26.9965 16.4976C26.9965 17.5092 26.8707 18.5168 26.6213 19.4973H3.37542C3.1261 18.5168 3.00031 17.5092 3.00031 16.4976C3.00408 13.3167 4.2695 10.2671 6.51863 8.01764C8.76802 5.76823 11.8176 4.50301 14.9985 4.49928H14.9982ZM26.5332 23.9962H3.46398L1.9643 20.9966H28.0332L26.5332 23.9962Z" fill="white"/>
    <path d="M5.48868 14.2108C5.88261 14.3381 6.30517 14.1225 6.43276 13.7288C7.24199 11.224 9.1072 9.19928 11.5374 8.1877C11.9195 8.02826 12.1001 7.58912 11.9406 7.20697C11.7812 6.82457 11.3421 6.64405 10.9599 6.80349C8.12522 7.98309 5.94969 10.345 5.00663 13.2665C4.87908 13.6602 5.09501 14.0827 5.4887 14.2106L5.48868 14.2108Z" fill="white"/>
</svg>