<svg width="27" height="26" viewBox="0 0 27 26" fill="none" xmlns="http://www.w3.org/2000/svg">
<path d="M1.98117 0.394664L11.4969 9.91041L7.49059 13.9182L1.97976 8.40733C0.91742 7.34467 0.320633 5.90359 0.320633 4.401C0.320633 2.8984 0.91742 1.45732 1.97976 0.394664H1.98117ZM16.213 12.2068L15.0032 13.4167L25.0204 23.4339L23.0173 25.4371L13 15.4212L2.98276 25.4371L0.97959 23.4339L14.2098 10.2037C13.3768 8.13958 14.2382 5.16741 16.5048 2.89791C19.2716 0.13258 23.0838 -0.540337 25.0204 1.39625C26.957 3.33283 26.2841 7.14508 23.5188 9.91041C21.2493 12.1799 18.2771 13.0412 16.213 12.2068Z" fill="#DE2463"/>
</svg>
