<svg width="26" height="26" viewBox="0 0 26 26" fill="none" xmlns="http://www.w3.org/2000/svg">
<g clip-path="url(#clip0_1_2074)">
<path d="M25.052 22.1947H0.947876V25.9983H25.052V22.1947Z" fill="white"/>
<path d="M21.7523 18.544V17.8777C21.7523 17.8712 21.7533 17.8653 21.7533 17.8588C21.7533 17.8523 21.7523 17.8474 21.7523 17.8414V17.7905H21.7501C21.7171 13.4816 18.5331 9.93365 14.391 9.31181V7.83848H15.7809H16.6855V5.49902C16.6666 5.00502 16.2668 4.60852 15.7663 4.60852H15.3758H14.8384H11.16H10.7256H10.2326C9.72022 4.60852 9.30531 5.0229 9.30531 5.53585V5.91177V6.20156V6.46102V7.08394V7.83794H10.218H11.6085V9.34106C7.64077 10.0328 4.60581 13.4236 4.46335 17.5565H4.4536V17.7504C4.45306 17.7867 4.44818 17.8225 4.44818 17.8577C4.44818 17.8945 4.45252 17.9303 4.4536 17.9655V18.5429H3.2511V20.3959H22.75V18.5429H21.7523V18.544Z" fill="white"/>
<path d="M4.53333 3.03587L3.21155 4.3584L5.17887 6.32461L6.50066 5.00208L4.53333 3.03587Z" fill="white"/>
<path d="M19.6021 5.11839L20.9233 6.43921L22.8898 4.47216L21.5686 3.15134L19.6021 5.11839Z" fill="white"/>
<path d="M13.9273 0.00158691H12.0726V2.78305H13.9273V0.00158691Z" fill="white"/>
</g>
<defs>
<clipPath id="clip0_1_2074">
<rect width="26" height="26" fill="white"/>
</clipPath>
</defs>
</svg>
