<svg width="23" height="17" viewBox="0 0 23 17" fill="none" xmlns="http://www.w3.org/2000/svg">
<path d="M1.64286 3.28571H21.3571C22.264 3.28571 23 2.54971 23 1.64286C23 0.736 22.264 0 21.3571 0H1.64286C0.736 0 0 0.736 0 1.64286C0 2.54971 0.736 3.28571 1.64286 3.28571ZM21.3571 6.57143H1.64286C0.736 6.57143 0 7.30743 0 8.21429C0 9.12114 0.736 9.85714 1.64286 9.85714H21.3571C22.264 9.85714 23 9.12114 23 8.21429C23 7.30743 22.264 6.57143 21.3571 6.57143ZM21.3571 13.1429H1.64286C0.736 13.1429 0 13.8789 0 14.7857C0 15.6926 0.736 16.4286 1.64286 16.4286H21.3571C22.264 16.4286 23 15.6926 23 14.7857C23 13.8789 22.264 13.1429 21.3571 13.1429Z" fill="#242424"/>
</svg>
