<svg width="30" height="30" viewBox="0 0 30 30" fill="none" xmlns="http://www.w3.org/2000/svg">
    <g clip-path="url(#clip0_1_3390)">
        <path d="M15 0C12.0333 0 9.13319 0.879735 6.66645 2.52796C4.19972 4.17618 2.27713 6.51886 1.14181 9.25975C0.00649922 12.0006 -0.290551 15.0166 0.288228 17.9264C0.867006 20.8361 2.29562 23.5088 4.39341 25.6066C6.49119 27.7044 9.16394 29.133 12.0737 29.7118C14.9834 30.2906 17.9994 29.9935 20.7403 28.8582C23.4811 27.7229 25.8238 25.8003 27.4721 23.3336C29.1203 20.8668 30 17.9667 30 15C29.9957 11.0231 28.4139 7.2103 25.6018 4.39819C22.7897 1.58609 18.9769 0.00434263 15 0V0ZM15 28.5938C12.3114 28.5938 9.6832 27.7965 7.44772 26.3028C5.21224 24.8091 3.4699 22.686 2.44102 20.2021C1.41214 17.7182 1.14294 14.9849 1.66746 12.348C2.19197 9.71106 3.48665 7.28889 5.38777 5.38777C7.28889 3.48665 9.71107 2.19197 12.348 1.66745C14.9849 1.14293 17.7182 1.41213 20.2021 2.44101C22.686 3.46989 24.8091 5.21224 26.3028 7.44772C27.7965 9.6832 28.5938 12.3114 28.5938 15C28.5894 18.604 27.1558 22.0591 24.6074 24.6074C22.0591 27.1558 18.604 28.5894 15 28.5938Z" fill="white"/>
        <path d="M21.0938 14.2969H8.90625C8.71977 14.2969 8.54093 14.371 8.40907 14.5028C8.2772 14.6347 8.20312 14.8135 8.20312 15C8.20312 15.1865 8.2772 15.3653 8.40907 15.4972C8.54093 15.629 8.71977 15.7031 8.90625 15.7031H21.0938C21.2802 15.7031 21.4591 15.629 21.5909 15.4972C21.7228 15.3653 21.7969 15.1865 21.7969 15C21.7969 14.8135 21.7228 14.6347 21.5909 14.5028C21.4591 14.371 21.2802 14.2969 21.0938 14.2969Z" fill="white"/>
        <path d="M21.0938 17.3438H8.90625C8.71977 17.3438 8.54093 17.4178 8.40907 17.5497C8.2772 17.6816 8.20312 17.8604 8.20312 18.0469C8.20312 18.2334 8.2772 18.4122 8.40907 18.5441C8.54093 18.6759 8.71977 18.75 8.90625 18.75H21.0938C21.2802 18.75 21.4591 18.6759 21.5909 18.5441C21.7228 18.4122 21.7969 18.2334 21.7969 18.0469C21.7969 17.8604 21.7228 17.6816 21.5909 17.5497C21.4591 17.4178 21.2802 17.3438 21.0938 17.3438Z" fill="white"/>
        <path d="M21.0938 11.25H8.90625C8.71977 11.25 8.54093 11.3241 8.40907 11.4559C8.2772 11.5878 8.20312 11.7666 8.20312 11.9531C8.20312 12.1396 8.2772 12.3184 8.40907 12.4503C8.54093 12.5822 8.71977 12.6562 8.90625 12.6562H21.0938C21.2802 12.6562 21.4591 12.5822 21.5909 12.4503C21.7228 12.3184 21.7969 12.1396 21.7969 11.9531C21.7969 11.7666 21.7228 11.5878 21.5909 11.4559C21.4591 11.3241 21.2802 11.25 21.0938 11.25Z" fill="white"/>
    </g>
    <defs>
        <clipPath id="clip0_1_3390">
            <rect width="30" height="30" fill="white"/>
        </clipPath>
    </defs>
</svg>
